<svg width="469" height="74" viewBox="0 0 469 74" fill="none" xmlns="http://www.w3.org/2000/svg">
<g filter="url(#filter0_d_2012_5230)">
<path d="M431.261 29.4917L434.556 26.1963L431.261 22.9009L427.965 26.1963L431.261 29.4917Z" fill="#FFC87B"/>
<path d="M284.61 26.8271L429.125 26.8271L429.125 25.5653L284.61 25.5652L284.61 26.8271Z" fill="#FFC87B"/>
<path d="M459 26.2032C459 26.2032 450.851 25.7093 447.643 33.1174L447.643 26.1969L459 26.2032Z" fill="#FFC87B"/>
<path d="M459 26.1907C459 26.1907 450.851 26.6845 447.643 19.2765L447.643 26.197L459 26.1907Z" fill="#FFC87B"/>
<path d="M433.32 26.2032C433.32 26.2032 443.593 25.7093 447.641 33.1174L447.641 26.1969L433.32 26.2032Z" fill="#FFC87B"/>
<path d="M433.32 26.1907C433.32 26.1907 443.593 26.6845 447.641 19.2765L447.641 26.197L433.32 26.1907Z" fill="#FFC87B"/>
<path d="M242.024 20.6915C241.925 21.5369 241.616 22.418 241.057 23.0102C240.546 23.5522 239.95 23.8452 239.22 24.0293C238.797 24.136 238.613 24.1674 238.196 24.1821C238.043 24.1863 237.891 24.1842 237.738 24.1758C237.706 24.1737 237.478 24.1486 237.552 24.1591C237.619 24.1695 237.418 24.134 237.376 24.1256C237.229 24.0942 237.087 24.0565 236.947 24.0084C236.897 23.9917 236.712 23.9184 236.855 23.9791C236.784 23.9498 236.715 23.9163 236.648 23.8807C236.522 23.8159 236.403 23.7426 236.286 23.6652C236.237 23.6338 236.129 23.5522 236.237 23.6359C236.17 23.5836 236.104 23.5271 236.041 23.4685C235.936 23.3743 235.838 23.2739 235.746 23.1671C235.702 23.119 235.66 23.0688 235.62 23.0165C235.564 22.9474 235.637 23.0374 235.643 23.0458C235.61 23.0018 235.578 22.9558 235.547 22.9097C235.379 22.6649 235.241 22.4054 235.116 22.1375C235.101 22.1061 235.086 22.0748 235.074 22.0413C235.13 22.1752 235.082 22.0601 235.074 22.035C235.049 21.968 235.024 21.9011 235.001 21.8341C234.944 21.6751 234.896 21.5118 234.852 21.3486C234.81 21.1937 234.775 21.0368 234.743 20.8777C234.729 20.8045 234.716 20.7292 234.703 20.6559C234.697 20.6182 234.691 20.5806 234.685 20.5429C234.647 20.3023 234.693 20.6266 234.676 20.4864C234.503 19.0048 234.655 17.7387 235.116 16.3471C235.338 15.6795 235.58 15.148 235.984 14.5034C236.196 14.1686 236.336 13.9761 236.547 13.7333C236.798 13.4424 237.072 13.1683 237.372 12.9276C238.941 11.6616 241.036 11.4732 242.974 11.6281C244.943 11.785 246.958 12.2078 248.8 12.9235C250.771 13.6894 252.6 14.8571 254.174 16.2613C257.614 19.3313 259.556 23.4852 261.751 27.4488C262.823 29.3845 263.97 31.2909 265.412 32.9776C266.956 34.7857 268.89 36.192 271.079 37.1191C274.423 38.5358 278.409 38.9815 281.67 37.0709C285.436 34.8652 286.527 30.1818 285.608 26.1408C285.112 23.954 284.001 21.8718 282.302 20.386C280.678 18.965 278.595 18.0798 276.427 18.015C275.27 17.9794 274.079 18.2452 273.14 18.9462C272.232 19.6263 271.61 20.6287 271.336 21.7274C270.798 23.8724 271.706 26.0613 273.797 26.9026C274.573 27.2144 275.444 27.3086 276.275 27.2332C276.699 27.1935 277.064 26.8984 277.064 26.4443C277.064 26.0488 276.702 25.6156 276.275 25.6553C274.724 25.7976 273.073 25.2326 272.784 23.4727C272.633 22.5498 272.933 21.5265 273.489 20.7857C274.096 19.9779 275.076 19.62 276.059 19.5928C278.003 19.5384 279.951 20.3546 281.37 21.6646C282.957 23.1316 283.869 25.1259 284.223 27.2374C284.557 29.2401 284.323 31.4186 283.319 33.2057C282.528 34.612 281.257 35.6835 279.803 36.2255C278.309 36.7821 276.656 36.9056 275.138 36.6838C273.073 36.3803 271.043 35.5454 269.314 34.386C265.661 31.9376 263.689 27.7166 261.661 23.9665C260.6 22.0057 259.512 20.0407 258.156 18.2661C256.746 16.4203 255.088 14.7964 253.171 13.478C251.435 12.2831 249.486 11.3644 247.45 10.8203C245.518 10.3034 243.428 9.93929 241.425 10.0084C239.324 10.0816 237.263 10.7492 235.758 12.2684C234.704 13.3336 233.977 14.6981 233.538 16.1211C232.73 18.7307 232.732 22.1229 234.637 24.2763C236.738 26.6515 240.917 26.0027 242.658 23.5334C243.248 22.6963 243.497 21.6918 243.612 20.6894C243.662 20.2667 243.214 19.9005 242.823 19.9005C242.356 19.9005 242.084 20.2646 242.034 20.6894L242.024 20.6915Z" fill="#FFC87B"/>
<path d="M224.035 20.6916C224.261 22.621 225.153 24.3873 227.005 25.1992C228.441 25.8291 230.125 25.9861 231.582 25.3373C234.16 24.1906 234.819 20.8716 234.553 18.3436C234.204 15.0225 232.473 11.8019 229.225 10.5609C227.262 9.81174 225.08 9.93521 223.041 10.247C220.999 10.5588 219.026 11.0694 217.148 11.9463C213.024 13.8736 209.91 17.2366 207.602 21.0976C205.377 24.8184 203.713 29.0205 200.767 32.262C198.118 35.1771 194.012 37.0878 190.092 36.7425C188.615 36.6127 187.014 36.0602 185.857 35.0725C184.45 33.8713 183.632 32.1532 183.375 30.3305C182.799 26.2602 184.783 21.5873 188.809 20.0889C190.511 19.4569 192.984 19.143 194.19 20.8402C195.221 22.2946 195.159 24.5045 193.491 25.3457C192.855 25.6659 192.122 25.7266 191.367 25.6554C190.942 25.6157 190.578 26.0468 190.578 26.4444C190.578 26.9027 190.94 27.1936 191.367 27.2333C193.168 27.4007 195.169 26.6955 196.006 24.9858C197.013 22.9287 196.282 20.2479 194.447 18.9086C192.639 17.5902 190.027 17.8832 188.071 18.6952C185.986 19.5595 184.254 21.1227 183.172 23.1065C181.123 26.865 181.066 32.059 183.954 35.4073C186.313 38.1404 190.222 38.7996 193.614 38.0839C195.822 37.6193 197.998 36.6357 199.796 35.2734C201.602 33.9048 203.019 32.1469 204.239 30.251C206.66 26.4862 208.301 22.192 211.142 18.7035C213.88 15.3406 217.561 12.9361 221.828 12.0676C223.719 11.6826 225.739 11.352 227.658 11.7537C228.618 11.9546 229.558 12.3355 230.318 12.9696C230.916 13.4698 231.301 13.9364 231.678 14.5412C232.09 15.2025 232.327 15.7319 232.551 16.4288C232.662 16.7699 232.754 17.1152 232.827 17.4647C232.911 17.8623 232.95 18.1218 232.98 18.4294C233.047 19.1263 233.049 19.8336 232.959 20.5284C232.978 20.3861 232.944 20.6204 232.938 20.6581C232.925 20.7334 232.913 20.8067 232.898 20.8799C232.865 21.0494 232.825 21.219 232.781 21.3864C232.739 21.537 232.693 21.6877 232.643 21.8363C232.62 21.9033 232.595 21.9702 232.569 22.0372C232.517 22.1795 232.557 22.0749 232.569 22.0435C232.551 22.0853 232.532 22.1293 232.513 22.1711C232.383 22.4494 232.228 22.7089 232.059 22.9663C231.979 23.0877 232.046 22.9894 232.023 23.0187C231.975 23.0773 231.927 23.1358 231.875 23.1944C231.781 23.2991 231.682 23.3995 231.575 23.4916C231.519 23.5418 231.462 23.59 231.402 23.6381C231.511 23.5544 231.402 23.636 231.354 23.6674C231.226 23.7511 231.098 23.8285 230.962 23.8976C230.904 23.9269 230.845 23.9562 230.784 23.9813C230.941 23.9143 230.732 23.9959 230.692 24.0106C230.54 24.0629 230.385 24.1027 230.228 24.1362C230.196 24.1424 230.01 24.1738 230.088 24.1634C230.152 24.155 229.949 24.1759 229.901 24.1801C229.721 24.1927 229.541 24.1927 229.363 24.1843C228.98 24.1654 228.782 24.1299 228.374 24.0252C227.631 23.8327 227.032 23.523 226.517 22.9517C226 22.3762 225.705 21.5077 225.611 20.7C225.561 20.2772 225.285 19.911 224.822 19.911C224.435 19.911 223.983 20.2731 224.033 20.7L224.035 20.6916Z" fill="#FFC87B"/>
<path d="M233.189 63.905C232.883 60.3935 232.576 57.0829 232.304 54.1615C230.705 36.968 229.901 28.3399 233.312 23.8009L233.817 23.1291L234.321 23.8009C237.732 28.3399 236.931 36.968 235.33 54.1594C235.058 57.0808 234.75 60.3914 234.444 63.9029" fill="#FFC87B"/>
<path d="M233.819 56.8193C233.907 55.8609 233.992 54.9359 234.076 54.0444C235.508 38.6569 236.334 29.7798 233.819 25.3328C231.303 29.7798 232.13 38.6569 233.561 54.0444C233.645 54.9338 233.731 55.8609 233.819 56.8172L233.819 56.8193Z" fill="#FFC87B"/>
<path d="M37.7383 30.1448L41.0337 26.8494L37.7383 23.554L34.4429 26.8494L37.7383 30.1448Z" fill="#FFC87B"/>
<path d="M39.8753 27.4795L184.39 27.4795L184.39 26.2176L39.8753 26.2176L39.8753 27.4795Z" fill="#FFC87B"/>
<path d="M9.99994 26.8437C9.99994 26.8437 18.1489 27.3376 21.3569 19.9295L21.3569 26.85L9.99994 26.8437Z" fill="#FFC87B"/>
<path d="M9.99994 26.8563C9.99994 26.8563 18.1489 26.3624 21.3569 33.7705L21.3569 26.85L9.99994 26.8563Z" fill="#FFC87B"/>
<path d="M35.6792 26.8438C35.6792 26.8438 25.4062 27.3376 21.359 19.9295L21.359 26.85L35.6792 26.8438Z" fill="#FFC87B"/>
<path d="M35.6792 26.8563C35.6792 26.8563 25.4062 26.3624 21.359 33.7705L21.359 26.85L35.6792 26.8563Z" fill="#FFC87B"/>
</g>
<defs>
<filter id="filter0_d_2012_5230" x="0" y="0" width="469" height="73.905" filterUnits="userSpaceOnUse" color-interpolation-filters="sRGB">
<feFlood flood-opacity="0" result="BackgroundImageFix"/>
<feColorMatrix in="SourceAlpha" type="matrix" values="0 0 0 0 0 0 0 0 0 0 0 0 0 0 0 0 0 0 127 0" result="hardAlpha"/>
<feOffset/>
<feGaussianBlur stdDeviation="5"/>
<feComposite in2="hardAlpha" operator="out"/>
<feColorMatrix type="matrix" values="0 0 0 0 1 0 0 0 0 0.784314 0 0 0 0 0.482353 0 0 0 1 0"/>
<feBlend mode="normal" in2="BackgroundImageFix" result="effect1_dropShadow_2012_5230"/>
<feBlend mode="normal" in="SourceGraphic" in2="effect1_dropShadow_2012_5230" result="shape"/>
</filter>
</defs>
</svg>
