<svg xmlns="http://www.w3.org/2000/svg" width="27" height="27" fill="none" viewBox="0 0 27 27"><path stroke="#111e1a" stroke-linecap="round" stroke-linejoin="round" stroke-width="1.75" d="M14.543 1.178 1.178 14.543a1.06 1.06 0 0 0 .016 1.5l2.651 2.652.446-.446c1.025-1.025 2.704-1.008 3.75.038s1.063 2.725.038 3.75l-.446.445 2.652 2.652a1.06 1.06 0 0 0 1.5.015L25.15 11.785a1.06 1.06 0 0 0-.016-1.5l-2.651-2.652-.075.074c-1.025 1.025-2.704 1.008-3.75-.038-1.046-1.045-1.063-2.725-.038-3.75l.075-.074-2.652-2.652a1.06 1.06 0 0 0-1.5-.015"/><path stroke="#111e1a" stroke-dasharray="5 5" stroke-linecap="round" stroke-linejoin="round" stroke-width="1.75" d="m10.335 5.386 10.607 10.606"/></svg>