<svg xmlns="http://www.w3.org/2000/svg" width="30" height="29" fill="none" viewBox="0 0 30 29"><path fill="#ffc87b" d="M2.618 14.61c1.743 1.08 4.01 1.456 6.055 1.2.646-.078 1.291-.22 1.822-.51.589-.327.976-.796 1.249-1.335.086 5.152 1.966 9.999 3.006 14.717v.015c.086.404.43.404.516 0v-.015c1.04-4.718 2.92-9.565 3.007-14.717.272.532.66 1.008 1.248 1.334.53.291 1.17.433 1.822.511 2.045.248 4.32-.128 6.056-1.2 1.743-1.078 2.848-2.894 2.554-4.548l-.043-.184c-1.966 1.37-4.578 2.384-6.938 1.923-2.095-.412-3.516-1.888-4.463-3.428-.61-.993-.782-1.355-1.5-2.455A3.27 3.27 0 0 0 18.338 3.3c0-1.824-1.492-3.3-3.336-3.3s-3.336 1.476-3.336 3.3c0 1.071.524 2.015 1.327 2.618-.717 1.1-.89 1.462-1.5 2.455-.947 1.54-2.367 3.016-4.462 3.428-2.36.461-4.972-.554-6.938-1.923l-.043.184c-.301 1.66.81 3.47 2.554 4.549z"/></svg>