<svg xmlns="http://www.w3.org/2000/svg" width="216" height="30" fill="none" viewBox="0 0 216 30"><g fill="#efe6d9" filter="url(#a)"><path d="M22.918 6.607c.62 0 1.24.275 1.769.82l3.01 3.102-3.01 3.102c-1.057 1.09-2.481 1.09-3.538 0l-3.01-3.102 3.01-3.102c.528-.545 1.148-.82 1.769-.82m3.423 3.925-2.259-2.328c-.72-.741-1.612-.741-2.329 0l-2.259 2.328 2.26 2.328c.719.74 1.611.74 2.328 0z"/><path d="M15.635 7.975c.414 0 .827.18 1.18.545l1.95 2.012-1.95 2.012c-.704.725-1.654.729-2.358 0l-1.95-2.012 1.95-2.012c.354-.365.767-.545 1.18-.545zm1.774 2.557-1.198-1.235c-.361-.37-.79-.37-1.152 0l-1.198 1.235 1.198 1.235c.361.37.79.37 1.152 0zM27.018 9.871h72.483c.317 0 .571.295.571.657 0 .361-.257.656-.57.656H27.017c-.317 0-.57-.295-.57-.656s.256-.657.57-.657"/><path d="M13.605 9.932 4 10.594l9.605.533zM192.566 6.607c.62 0 1.241.275 1.769.82l3.01 3.102-3.01 3.102c-1.057 1.09-2.481 1.09-3.538 0l-3.01-3.102 3.01-3.102c.529-.545 1.149-.82 1.769-.82m3.424 3.925-2.259-2.328c-.72-.741-1.612-.741-2.329 0l-2.259 2.328 2.259 2.328c.719.74 1.612.74 2.329 0z"/><path d="M199.85 7.975c.413 0 .827.18 1.18.545l1.95 2.012-1.95 2.012c-.704.725-1.654.725-2.358 0l-1.95-2.012 1.95-2.012c.353-.365.767-.545 1.18-.545zm1.774 2.557-1.198-1.235c-.362-.37-.791-.37-1.152 0l-1.199 1.235 1.199 1.235c.361.37.79.37 1.152 0zM115.986 9.873h72.48c.317 0 .571.295.571.657 0 .361-.257.656-.571.656h-72.483c-.317 0-.571-.295-.571-.656s.257-.657.571-.657z"/><path d="m201.879 9.934 9.605.662-9.605.533zM102.555 12.552l4.216-2.021-4.216-2.021-4.217 2.02zm2.58-2.018-2.578 1.235-2.578-1.235 2.578-1.235z"/><path d="m102.554 8.262 4.735 2.268-4.735 2.268-4.734-2.268zm3.701 2.27-3.701-1.773-3.7 1.774 3.7 1.774zm-3.701-1.484 3.096 1.485-3.096 1.485-3.096-1.485zm2.062 1.485-2.062-.988-2.062.988 2.062.988zM112.928 12.552l4.216-2.021-4.216-2.021-4.217 2.02zm2.578-2.018-2.578 1.235-2.578-1.235 2.578-1.235z"/><path d="m112.927 8.262 4.735 2.268-4.735 2.268-4.734-2.268zm3.698 2.27-3.7-1.773-3.701 1.774 3.701 1.774zm-3.698-1.484 3.096 1.485-3.096 1.485-3.096-1.485zm2.06 1.485-2.062-.988-2.063.988 2.063.988zM105.843 5.011l1.898 4.488 1.897-4.488-1.897-4.488zm1.9 2.744-1.162-2.744 1.162-2.744 1.162 2.744z"/><path d="m107.745 0 2.12 5.012-2.12 5.011-2.12-5.011zm1.675 5.012-1.678-3.967-1.677 3.967 1.677 3.966zm-1.675-3.268 1.382 3.268-1.382 3.268-1.382-3.268zm.939 3.268-.939-2.223-.94 2.223.94 2.222zM105.843 16.05l1.898 4.488 1.897-4.488-1.897-4.488zm1.9 2.747-1.162-2.744 1.162-2.744 1.162 2.744z"/><path d="m107.745 11.04 2.12 5.01-2.12 5.012-2.12-5.011zm1.675 5.01-1.678-3.966-1.677 3.967 1.677 3.966zm-1.675-3.267 1.382 3.268-1.382 3.268-1.382-3.268zm.939 3.268-.939-2.223-.94 2.223.94 2.223z"/></g><defs><filter id="a" width="215.484" height="29.063" x="0" y="0" color-interpolation-filters="sRGB" filterUnits="userSpaceOnUse"><feFlood flood-opacity="0" result="BackgroundImageFix"/><feColorMatrix in="SourceAlpha" result="hardAlpha" values="0 0 0 0 0 0 0 0 0 0 0 0 0 0 0 0 0 0 127 0"/><feOffset dy="4"/><feGaussianBlur stdDeviation="2"/><feComposite in2="hardAlpha" operator="out"/><feColorMatrix values="0 0 0 0 0 0 0 0 0 0 0 0 0 0 0 0 0 0 0.25 0"/><feBlend in2="BackgroundImageFix" result="effect1_dropShadow_2124_1776"/><feBlend in="SourceGraphic" in2="effect1_dropShadow_2124_1776" result="shape"/></filter></defs></svg>