<svg width="286" height="54" viewBox="0 0 286 54" fill="none" xmlns="http://www.w3.org/2000/svg">
<path d="M38.9502 43.1057L43.0505 47.2114L47.1508 43.1057L43.0505 39L38.9502 43.1057Z" fill="#EFE6D9"/>
<path d="M14.3481 10.2654L10.2478 6.1543L6.14746 10.2654L10.2478 14.3711L14.3481 10.2654Z" fill="#EFE6D9"/>
<path d="M43.0452 16.4189L38.9503 20.5246L45.0981 26.6832L26.6494 45.1588L20.4963 39.0003L16.4014 43.106L26.6494 53.3703L53.2987 26.6832L43.0452 16.4189Z" fill="#EFE6D9"/>
<path d="M14.3483 32.8456L8.2006 26.6871L26.6492 8.206L32.797 14.37L36.8973 10.2643L26.6492 0L0 26.6871L10.248 36.9513L14.3483 32.8456Z" fill="#EFE6D9"/>
<path d="M21.5281 27.7031L6.15332 43.1049L10.2536 47.2106L25.6284 31.8142L21.5281 27.7031Z" fill="#EFE6D9"/>
<path d="M31.7702 25.6613L47.1396 10.2649L43.0393 6.15918L27.6699 21.5556L31.7702 25.6613Z" fill="#EFE6D9"/>
<path d="M16.4014 20.5246L32.8026 36.9474L36.9029 32.8417L20.5017 16.4189L16.4014 20.5246Z" fill="#EFE6D9"/>
<path d="M87.1761 19.9757C87.1761 19.4193 87.1167 18.9979 87.0032 18.7116C86.8898 18.4253 86.6575 18.22 86.3117 18.1066C85.966 17.9931 85.442 17.9337 84.7343 17.9337C84.6749 17.9337 84.6478 17.8743 84.6478 17.7608C84.6478 17.6474 84.6749 17.588 84.7343 17.588C85.2151 17.588 85.7661 17.5988 86.3874 17.6258C87.0086 17.6528 87.7325 17.6636 88.5645 17.6636C89.2343 17.6636 89.8934 17.6528 90.5525 17.6258C91.2008 17.5988 91.768 17.588 92.2542 17.588C92.3136 17.588 92.3406 17.6474 92.3406 17.7608C92.3406 17.8743 92.3136 17.9337 92.2542 17.9337C91.5843 17.9337 91.0765 17.9877 90.7416 18.0958C90.4066 18.2038 90.1797 18.3929 90.0663 18.6738C89.9528 18.9547 89.8934 19.3707 89.8934 19.9271V33.2652C89.8934 33.8217 89.9528 34.2431 90.0663 34.5294C90.1797 34.8157 90.4066 35.0102 90.7416 35.1074C91.0765 35.1993 91.5789 35.2533 92.2542 35.2533C92.3136 35.2533 92.3406 35.3127 92.3406 35.4261C92.3406 35.5396 92.3136 35.599 92.2542 35.599C91.7734 35.599 91.2116 35.5936 90.5525 35.572C89.8988 35.5504 89.2397 35.545 88.5645 35.545C87.7433 35.545 87.0194 35.5504 86.3874 35.572C85.7661 35.5936 85.2097 35.599 84.7343 35.599C84.6749 35.599 84.6478 35.5396 84.6478 35.4261C84.6478 35.3127 84.6749 35.2533 84.7343 35.2533C85.442 35.2533 85.9714 35.2047 86.3117 35.1074C86.6575 35.0156 86.8898 34.8211 87.0032 34.5294C87.1167 34.2431 87.1761 33.8217 87.1761 33.2652V19.9865V19.9757ZM75.8098 26.6043V25.8534H88.4078V26.6043H75.8098ZM74.5457 33.2544V19.9163C74.5457 19.3599 74.4862 18.9385 74.3728 18.663C74.2593 18.3821 74.0378 18.193 73.7083 18.085C73.3788 17.9769 72.8872 17.9229 72.2119 17.9229C72.1741 17.9229 72.1525 17.8635 72.1525 17.75C72.1525 17.6366 72.1741 17.5771 72.2119 17.5771C72.7143 17.5771 73.2707 17.588 73.8758 17.615C74.4916 17.642 75.1345 17.6528 75.8044 17.6528C76.6255 17.6528 77.3548 17.642 77.9923 17.615C78.6297 17.588 79.1916 17.5771 79.694 17.5771C79.7318 17.5771 79.7534 17.6366 79.7534 17.75C79.7534 17.8635 79.7318 17.9229 79.694 17.9229C79.0025 17.9229 78.4839 17.9823 78.1435 18.0958C77.7978 18.2092 77.5655 18.4091 77.4521 18.7008C77.3386 18.9871 77.2792 19.4085 77.2792 19.9649V33.2436C77.2792 33.8001 77.3386 34.2214 77.4521 34.5078C77.5655 34.7941 77.7978 34.9886 78.1544 35.0858C78.5109 35.1776 79.0241 35.2317 79.694 35.2317C79.7318 35.2317 79.7534 35.2911 79.7534 35.4045C79.7534 35.518 79.7318 35.5774 79.694 35.5774C79.1808 35.5774 78.6027 35.572 77.9815 35.5504C77.3602 35.5288 76.6363 35.5234 75.8098 35.5234C75.1399 35.5234 74.4862 35.5288 73.8542 35.5504C73.2167 35.572 72.6657 35.5774 72.1903 35.5774C72.1525 35.5774 72.1309 35.518 72.1309 35.4045C72.1309 35.2911 72.1525 35.2317 72.1903 35.2317C72.8602 35.2317 73.3626 35.183 73.6867 35.0858C74.0162 34.994 74.2377 34.7995 74.362 34.5078C74.4916 34.2214 74.5511 33.8001 74.5511 33.2436V33.2544H74.5457Z" fill="#EFE6D9"/>
<path d="M107.429 29.0844C107.429 28.2794 107.159 27.6636 106.624 27.2422C106.089 26.8208 105.279 26.6047 104.209 26.6047H100.179V25.8538H104.236C105.306 25.8538 106.105 25.6756 106.624 25.3028C107.148 24.9355 107.402 24.4114 107.402 23.7145C107.402 23.6551 107.456 23.6281 107.564 23.6281C107.672 23.6281 107.726 23.6551 107.726 23.7145C107.726 24.3304 107.726 24.8058 107.715 25.1569C107.715 25.5027 107.704 25.8592 107.704 26.2212C107.704 26.6858 107.715 27.1396 107.742 27.588C107.769 28.0363 107.78 28.5333 107.78 29.0682C107.78 29.106 107.721 29.1276 107.607 29.1276C107.494 29.1276 107.434 29.106 107.434 29.0682V29.079L107.429 29.0844ZM109.039 35.5941H96.5542C96.4948 35.5941 96.4678 35.5346 96.4678 35.4212C96.4678 35.3077 96.4948 35.2483 96.5542 35.2483C97.1917 35.2483 97.6563 35.1997 97.9642 35.1025C98.2721 35.0106 98.4774 34.8161 98.58 34.5244C98.6881 34.2381 98.7421 33.8167 98.7421 33.2603V19.9222C98.7421 19.3657 98.6881 18.9444 98.58 18.6689C98.472 18.3879 98.2667 18.1989 97.9642 18.0908C97.6563 17.9828 97.1863 17.9288 96.5542 17.9288C96.4948 17.9288 96.4678 17.8693 96.4678 17.7559C96.4678 17.6424 96.4948 17.583 96.5542 17.583H108.526C108.72 17.583 108.812 17.6694 108.812 17.8423L108.871 21.5861C108.871 21.6239 108.823 21.6455 108.731 21.6617C108.639 21.6617 108.569 21.6509 108.531 21.5861C108.315 20.4948 107.883 19.6791 107.207 19.1389C106.532 18.604 105.657 18.3339 104.56 18.3339H103.383C102.902 18.3339 102.524 18.3879 102.243 18.496C101.962 18.604 101.767 18.7769 101.654 19.0092C101.54 19.2415 101.481 19.571 101.481 19.9762V33.1415C101.481 33.5412 101.535 33.8762 101.643 34.1355C101.751 34.3948 101.919 34.5784 102.146 34.6865C102.372 34.7945 102.702 34.8486 103.123 34.8486H104.533C105.835 34.8486 106.894 34.5352 107.699 33.9086C108.504 33.2873 109.077 32.3635 109.428 31.1264C109.449 31.067 109.509 31.0508 109.617 31.067C109.725 31.0886 109.779 31.1156 109.779 31.1534C109.703 31.6883 109.638 32.3311 109.579 33.082C109.52 33.8329 109.493 34.5244 109.493 35.1565C109.493 35.4428 109.352 35.5833 109.055 35.5833L109.044 35.5941H109.039Z" fill="#EFE6D9"/>
<path d="M119.082 19.9464V33.1386C119.082 33.6194 119.131 33.9814 119.222 34.2299C119.314 34.4784 119.503 34.6459 119.773 34.7215C120.044 34.8025 120.438 34.835 120.951 34.835H122.68C124.047 34.835 125.186 34.4514 126.132 33.6843C127.066 32.9118 127.698 31.8961 128.001 30.6266C128.023 30.5672 128.077 30.551 128.174 30.5672C128.266 30.5888 128.32 30.6266 128.32 30.6806C128.26 31.2749 128.206 31.9934 128.147 32.8253C128.087 33.6573 128.06 34.4352 128.06 35.1429C128.06 35.4292 127.92 35.5697 127.628 35.5697H114.166C114.128 35.5697 114.106 35.5102 114.106 35.3968C114.106 35.2833 114.128 35.2239 114.166 35.2239C114.782 35.2239 115.241 35.1753 115.565 35.0781C115.878 34.9862 116.094 34.7917 116.203 34.5C116.311 34.2137 116.365 33.7923 116.365 33.2359V19.8978C116.365 19.3413 116.311 18.92 116.203 18.6444C116.094 18.3635 115.889 18.1744 115.565 18.0664C115.246 17.9584 114.782 17.9043 114.166 17.9043C114.128 17.9043 114.106 17.8449 114.106 17.7315C114.106 17.618 114.128 17.5586 114.166 17.5586C114.625 17.5586 115.165 17.5694 115.776 17.5964C116.392 17.6234 117.034 17.6342 117.704 17.6342C118.412 17.6342 119.071 17.6234 119.676 17.5964C120.276 17.5694 120.816 17.5586 121.275 17.5586C121.335 17.5586 121.362 17.618 121.362 17.7315C121.362 17.8449 121.335 17.9043 121.275 17.9043C120.659 17.9043 120.2 17.9584 119.876 18.0664C119.563 18.1744 119.347 18.3689 119.239 18.6552C119.131 18.9416 119.077 19.3629 119.077 19.9194V19.9464H119.082Z" fill="#EFE6D9"/>
<path d="M154.725 35.2483C154.763 35.2483 154.785 35.3077 154.785 35.4211C154.785 35.5346 154.763 35.594 154.725 35.594C154.223 35.594 153.666 35.5886 153.061 35.567C152.445 35.5454 151.803 35.54 151.133 35.54C150.463 35.54 149.836 35.5454 149.247 35.567C148.658 35.5886 148.129 35.594 147.648 35.594C147.61 35.594 147.589 35.5346 147.589 35.4211C147.589 35.3077 147.61 35.2483 147.648 35.2483C148.572 35.2483 149.161 35.1186 149.436 34.8755C149.706 34.627 149.809 34.0922 149.75 33.2602L149.15 20.095L150.414 18.107L143.045 35.3941C143.024 35.4698 142.954 35.5076 142.819 35.5076C142.684 35.5076 142.597 35.4698 142.559 35.3941L134.764 19.9815C134.072 18.6148 133.17 17.9395 132.063 17.9395C132.003 17.9395 131.976 17.8801 131.976 17.7666C131.976 17.6532 132.003 17.5938 132.063 17.5938C132.425 17.5938 132.814 17.5937 133.224 17.6208C133.635 17.6478 133.986 17.6478 134.272 17.6478C134.694 17.6478 135.077 17.6478 135.412 17.6208C135.747 17.5937 136.012 17.5938 136.201 17.5938C136.471 17.5938 136.676 17.6856 136.817 17.8693C136.957 18.0475 137.2 18.4581 137.519 19.0956L143.991 31.7962L142.754 33.9895L149.571 18.3176C149.685 18.0691 149.814 17.8801 149.944 17.7666C150.074 17.6532 150.241 17.5938 150.43 17.5938C150.603 17.5938 150.792 17.5937 150.992 17.6208C151.192 17.6478 151.441 17.6478 151.727 17.6478C152.305 17.6478 152.791 17.6478 153.191 17.6208C153.591 17.5937 153.985 17.5938 154.369 17.5938C154.428 17.5938 154.455 17.6532 154.455 17.7666C154.455 17.8801 154.428 17.9395 154.369 17.9395C153.488 17.9395 152.834 18.1016 152.413 18.4311C151.992 18.7606 151.797 19.3171 151.835 20.1004L152.472 33.2656C152.51 33.8221 152.58 34.2434 152.688 34.5298C152.797 34.8161 153.002 35.0106 153.326 35.1078C153.639 35.1996 154.109 35.2537 154.725 35.2537V35.2483ZM134.359 32.1042L134.645 18.2474L135.423 18.3068L135.11 32.1096C135.088 33.1306 135.282 33.9031 135.698 34.4433C136.114 34.9836 136.73 35.2483 137.551 35.2483C137.611 35.2483 137.638 35.3077 137.638 35.4211C137.638 35.5346 137.611 35.594 137.551 35.594C137.13 35.594 136.692 35.5886 136.255 35.567C135.812 35.5454 135.32 35.54 134.758 35.54C134.197 35.54 133.662 35.5454 133.192 35.567C132.722 35.5886 132.273 35.594 131.852 35.594C131.793 35.594 131.766 35.5346 131.766 35.4211C131.766 35.3077 131.793 35.2483 131.852 35.2483C132.641 35.2483 133.251 34.9782 133.678 34.4433C134.105 33.9085 134.332 33.1306 134.353 32.1096L134.359 32.1042Z" fill="#EFE6D9"/>
<path d="M163.818 33.2544C163.818 33.8109 163.872 34.2322 163.98 34.5186C164.088 34.8049 164.293 34.9994 164.596 35.0966C164.904 35.1884 165.374 35.2425 166.006 35.2425C166.065 35.2425 166.092 35.3019 166.092 35.4153C166.092 35.5288 166.065 35.5882 166.006 35.5882C165.525 35.5882 164.99 35.5828 164.396 35.5612C163.802 35.5396 163.137 35.5342 162.408 35.5342C161.738 35.5342 161.095 35.5396 160.479 35.5612C159.863 35.5828 159.323 35.5882 158.842 35.5882C158.783 35.5882 158.756 35.5288 158.756 35.4153C158.756 35.3019 158.783 35.2425 158.842 35.2425C159.458 35.2425 159.928 35.1938 160.252 35.0966C160.582 35.0048 160.793 34.8103 160.901 34.5186C161.009 34.2268 161.063 33.8109 161.063 33.2544V19.9163C161.063 19.3599 161.009 18.9385 160.901 18.663C160.793 18.3821 160.582 18.193 160.252 18.085C159.923 17.9769 159.458 17.9229 158.842 17.9229C158.783 17.9229 158.756 17.8635 158.756 17.75C158.756 17.6366 158.783 17.5771 158.842 17.5771C159.323 17.5771 159.863 17.588 160.479 17.615C161.095 17.642 161.738 17.6528 162.408 17.6528C163.137 17.6528 163.807 17.642 164.407 17.615C165.006 17.588 165.546 17.5771 166.006 17.5771C166.065 17.5771 166.092 17.6366 166.092 17.75C166.092 17.8635 166.065 17.9229 166.006 17.9229C165.39 17.9229 164.931 17.9823 164.606 18.0958C164.293 18.2092 164.077 18.4091 163.969 18.7008C163.861 18.9925 163.807 19.4085 163.807 19.9649V33.2436H163.812V33.2544H163.818Z" fill="#EFE6D9"/>
<path d="M187.695 21.0999V35.9938L186.917 35.1295V21.0999C186.917 20.0788 186.723 19.2955 186.329 18.7553C185.934 18.2043 185.351 17.9288 184.589 17.9288C184.551 17.9288 184.53 17.8693 184.53 17.7559C184.53 17.6424 184.551 17.583 184.589 17.583C184.989 17.583 185.41 17.5938 185.853 17.6208C186.296 17.6478 186.777 17.6586 187.29 17.6586C187.803 17.6586 188.279 17.6478 188.754 17.6208C189.235 17.5938 189.678 17.583 190.078 17.583C190.137 17.583 190.164 17.6424 190.164 17.7559C190.164 17.8693 190.137 17.9288 190.078 17.9288C189.311 17.9288 188.722 18.2043 188.311 18.7553C187.895 19.3063 187.695 20.0896 187.695 21.0999ZM173.082 32.1042V18.2475L173.86 18.3069V32.1096C173.86 33.1306 174.06 33.9032 174.46 34.4434C174.86 34.9782 175.438 35.2483 176.189 35.2483C176.248 35.2483 176.275 35.3077 176.275 35.4212C176.275 35.5346 176.248 35.5941 176.189 35.5941C175.789 35.5941 175.367 35.5887 174.935 35.5671C174.498 35.5454 174.033 35.54 173.509 35.54C172.953 35.54 172.418 35.5454 171.91 35.5671C171.402 35.5887 170.927 35.5941 170.484 35.5941C170.424 35.5941 170.397 35.5346 170.397 35.4212C170.397 35.3077 170.424 35.2483 170.484 35.2483C171.327 35.2483 171.969 34.9782 172.412 34.4434C172.855 33.9086 173.077 33.1306 173.077 32.1096H173.082V32.1042ZM187.695 35.9992C187.695 36.0587 187.647 36.0911 187.55 36.1019C187.458 36.1073 187.387 36.1019 187.35 36.0911L173.515 19.96C172.823 19.1713 172.234 18.6418 171.748 18.3609C171.262 18.08 170.786 17.945 170.322 17.945C170.262 17.945 170.235 17.8855 170.235 17.7721C170.235 17.6586 170.262 17.5992 170.322 17.5992C170.684 17.5992 171.056 17.5992 171.445 17.6262C171.829 17.6478 172.18 17.6532 172.51 17.6532C173.082 17.6532 173.606 17.6532 174.076 17.6262C174.546 17.5992 174.908 17.5992 175.151 17.5992C175.394 17.5992 175.584 17.7127 175.702 17.9288C175.816 18.1502 176.102 18.5392 176.567 19.0956L187.474 31.9476L187.701 36.01V35.9992H187.695Z" fill="#EFE6D9"/>
<path d="M204.442 35.9347C202.276 35.9347 200.423 35.5241 198.878 34.7084C197.333 33.8927 196.155 32.7906 195.34 31.413C194.524 30.0355 194.113 28.485 194.113 26.7779C194.113 25.3571 194.389 24.066 194.934 22.9045C195.485 21.743 196.247 20.749 197.236 19.9117C198.224 19.0743 199.375 18.4315 200.704 17.9669C202.028 17.5023 203.475 17.2754 205.047 17.2754C205.912 17.2754 206.798 17.351 207.711 17.4915C208.618 17.6319 209.364 17.8534 209.936 18.1397C210.109 18.2154 210.217 18.3018 210.25 18.3883C210.288 18.4747 210.315 18.6151 210.336 18.8042L210.682 22.548C210.682 22.5858 210.633 22.6236 210.541 22.6506C210.45 22.6776 210.379 22.6506 210.342 22.575C209.764 21.1326 208.905 20.0089 207.754 19.204C206.603 18.3991 205.253 17.9939 203.697 17.9939C201.547 17.9939 199.915 18.6962 198.808 20.0954C197.695 21.4945 197.144 23.3691 197.144 25.7083C197.144 27.6315 197.49 29.3278 198.192 30.7918C198.894 32.2612 199.84 33.4065 201.044 34.2222C202.244 35.0379 203.605 35.4485 205.145 35.4485C205.95 35.4485 206.592 35.3621 207.073 35.1892C207.554 35.0163 207.905 34.6814 208.121 34.179C208.343 33.6766 208.456 32.9419 208.456 31.9587C208.456 31.0349 208.397 30.3596 208.283 29.9274C208.17 29.4898 207.9 29.2089 207.495 29.0739C207.084 28.9388 206.403 28.874 205.469 28.874C205.355 28.874 205.296 28.7984 205.296 28.6471C205.296 28.4958 205.345 28.4202 205.436 28.4202C206.722 28.5012 207.894 28.5391 208.948 28.5499C210.007 28.5499 211.103 28.5391 212.259 28.4742C212.351 28.4742 212.4 28.5391 212.4 28.6741C212.4 28.8092 212.351 28.874 212.259 28.874C211.897 28.8524 211.622 28.9118 211.454 29.0631C211.287 29.2089 211.174 29.5169 211.141 30.0031C211.109 30.4839 211.082 31.2294 211.082 32.245C211.082 32.8825 211.103 33.3524 211.141 33.6604C211.179 33.9683 211.217 34.1898 211.244 34.3357C211.271 34.4761 211.282 34.6328 211.282 34.784C211.282 34.8975 211.255 34.9785 211.206 35.0109C211.157 35.0488 211.066 35.092 210.93 35.1244C209.893 35.3513 208.818 35.5458 207.694 35.7024C206.571 35.8591 205.496 35.9293 204.459 35.9293H204.442V35.9347Z" fill="#EFE6D9"/>
<path d="M231.399 19.9757C231.399 19.4193 231.34 18.9979 231.226 18.7116C231.113 18.4253 230.881 18.22 230.535 18.1066C230.189 17.9931 229.665 17.9337 228.947 17.9337C228.887 17.9337 228.86 17.8743 228.86 17.7608C228.86 17.6474 228.887 17.588 228.947 17.588C229.427 17.588 229.978 17.5988 230.6 17.6258C231.221 17.6528 231.945 17.6636 232.777 17.6636C233.447 17.6636 234.106 17.6528 234.765 17.6258C235.419 17.5988 235.98 17.588 236.467 17.588C236.526 17.588 236.553 17.6474 236.553 17.7608C236.553 17.8743 236.526 17.9337 236.467 17.9337C235.797 17.9337 235.289 17.9877 234.954 18.0958C234.619 18.2038 234.392 18.3929 234.279 18.6738C234.165 18.9547 234.106 19.3707 234.106 19.9271V33.2652C234.106 33.8217 234.165 34.2431 234.279 34.5294C234.392 34.8157 234.619 35.0102 234.954 35.1074C235.289 35.1993 235.791 35.2533 236.467 35.2533C236.526 35.2533 236.553 35.3127 236.553 35.4261C236.553 35.5396 236.526 35.599 236.467 35.599C235.986 35.599 235.424 35.5936 234.765 35.572C234.117 35.5504 233.452 35.545 232.777 35.545C231.956 35.545 231.226 35.5504 230.6 35.572C229.978 35.5936 229.422 35.599 228.947 35.599C228.887 35.599 228.86 35.5396 228.86 35.4261C228.86 35.3127 228.887 35.2533 228.947 35.2533C229.654 35.2533 230.184 35.2047 230.535 35.1074C230.881 35.0156 231.113 34.8211 231.226 34.5294C231.34 34.2431 231.399 33.8217 231.399 33.2652V19.9865V19.9757ZM220.033 26.6043V25.8534H232.631V26.6043H220.033ZM218.769 33.2544V19.9163C218.769 19.3599 218.709 18.9385 218.596 18.663C218.483 18.3821 218.261 18.193 217.931 18.085C217.602 17.9769 217.11 17.9229 216.435 17.9229C216.397 17.9229 216.376 17.8635 216.376 17.75C216.376 17.6366 216.397 17.5771 216.435 17.5771C216.937 17.5771 217.494 17.588 218.099 17.615C218.715 17.642 219.358 17.6528 220.028 17.6528C220.849 17.6528 221.578 17.642 222.215 17.615C222.853 17.588 223.415 17.5771 223.917 17.5771C223.955 17.5771 223.977 17.6366 223.977 17.75C223.977 17.8635 223.955 17.9229 223.917 17.9229C223.226 17.9229 222.707 17.9823 222.367 18.0958C222.021 18.2092 221.789 18.4091 221.675 18.7008C221.562 18.9871 221.502 19.4085 221.502 19.9649V33.2436C221.502 33.8001 221.562 34.2214 221.675 34.5078C221.789 34.7941 222.021 34.9886 222.378 35.0858C222.734 35.1776 223.247 35.2317 223.917 35.2317C223.955 35.2317 223.977 35.2911 223.977 35.4045C223.977 35.518 223.955 35.5774 223.917 35.5774C223.404 35.5774 222.826 35.572 222.205 35.5504C221.583 35.5288 220.859 35.5234 220.028 35.5234C219.358 35.5234 218.704 35.5288 218.072 35.5504C217.434 35.572 216.883 35.5774 216.408 35.5774C216.37 35.5774 216.349 35.518 216.349 35.4045C216.349 35.2911 216.37 35.2317 216.408 35.2317C217.078 35.2317 217.58 35.183 217.904 35.0858C218.234 34.994 218.455 34.7995 218.58 34.5078C218.709 34.2214 218.769 33.8001 218.769 33.2436V33.2544Z" fill="#EFE6D9"/>
<path d="M245.786 26.6636L246.213 25.9127H252.139L252.339 26.6636H245.78H245.786ZM260.021 35.2478C260.096 35.2478 260.134 35.3072 260.134 35.4207C260.134 35.5341 260.096 35.5935 260.021 35.5935C259.443 35.5935 258.854 35.5719 258.254 35.5341C257.654 35.4963 257.071 35.4747 256.515 35.4747C255.877 35.4747 255.332 35.4963 254.862 35.5341C254.392 35.5719 253.873 35.5935 253.295 35.5935C253.219 35.5935 253.181 35.5341 253.181 35.4207C253.181 35.3072 253.219 35.2478 253.295 35.2478C254.159 35.2478 254.672 35.0911 254.845 34.7832C255.018 34.4753 254.872 33.8702 254.419 32.9681L248.406 20.7212L249.584 18.7926L243.89 31.6445C243.387 32.8168 243.376 33.7082 243.852 34.324C244.322 34.9399 245.121 35.2478 246.256 35.2478C246.348 35.2478 246.402 35.3072 246.402 35.4207C246.402 35.5341 246.353 35.5935 246.256 35.5935C245.678 35.5935 245.154 35.5719 244.678 35.5341C244.198 35.4963 243.592 35.4747 242.863 35.4747C242.134 35.4747 241.55 35.4963 241.124 35.5341C240.691 35.5719 240.162 35.5935 239.525 35.5935C239.449 35.5935 239.411 35.5341 239.411 35.4207C239.411 35.3072 239.449 35.2478 239.525 35.2478C240.038 35.2478 240.486 35.1398 240.864 34.9345C241.237 34.7292 241.604 34.3294 241.977 33.7676C242.339 33.2004 242.744 32.4062 243.187 31.3906L249.378 17.4204C249.416 17.361 249.508 17.334 249.638 17.334C249.767 17.334 249.854 17.361 249.864 17.4204L256.914 31.6499C257.357 32.5737 257.752 33.2976 258.092 33.827C258.438 34.3564 258.762 34.7238 259.07 34.9399C259.378 35.156 259.707 35.2532 260.048 35.2532H260.021V35.2478Z" fill="#EFE6D9"/>
<path d="M285.94 35.2483C285.978 35.2483 286 35.3077 286 35.4211C286 35.5346 285.978 35.594 285.94 35.594C285.438 35.594 284.882 35.5886 284.277 35.567C283.661 35.5454 283.018 35.54 282.348 35.54C281.678 35.54 281.051 35.5454 280.463 35.567C279.879 35.5886 279.344 35.594 278.864 35.594C278.826 35.594 278.804 35.5346 278.804 35.4211C278.804 35.3077 278.826 35.2483 278.864 35.2483C279.787 35.2483 280.376 35.1186 280.652 34.8755C280.922 34.627 281.024 34.0922 280.965 33.2602L280.365 20.095L281.629 18.107L274.261 35.3941C274.239 35.4698 274.169 35.5076 274.034 35.5076C273.899 35.5076 273.812 35.4698 273.775 35.3941L265.979 19.9815C265.288 18.6148 264.386 17.9395 263.278 17.9395C263.219 17.9395 263.192 17.8801 263.192 17.7666C263.192 17.6532 263.219 17.5938 263.278 17.5938C263.64 17.5938 264.029 17.5937 264.44 17.6208C264.856 17.6424 265.201 17.6478 265.488 17.6478C265.909 17.6478 266.292 17.6478 266.627 17.6208C266.962 17.5937 267.227 17.5938 267.416 17.5938C267.686 17.5938 267.892 17.6856 268.032 17.8693C268.172 18.0475 268.416 18.4581 268.734 19.0956L275.206 31.7962L273.969 33.9895L280.787 18.3176C280.9 18.0691 281.03 17.8801 281.159 17.7666C281.289 17.6532 281.451 17.5938 281.646 17.5938C281.819 17.5938 282.008 17.5937 282.207 17.6208C282.407 17.6478 282.656 17.6478 282.942 17.6478C283.52 17.6478 284.006 17.6478 284.406 17.6208C284.806 17.5992 285.2 17.5938 285.584 17.5938C285.643 17.5938 285.67 17.6532 285.67 17.7666C285.67 17.8801 285.643 17.9395 285.584 17.9395C284.703 17.9395 284.05 18.1016 283.628 18.4311C283.207 18.7606 283.012 19.3171 283.05 20.1004L283.688 33.2656C283.726 33.8221 283.796 34.2434 283.904 34.5298C284.012 34.8161 284.217 35.0106 284.541 35.1078C284.855 35.1996 285.325 35.2537 285.935 35.2537H285.94V35.2483ZM265.574 32.1042L265.86 18.2474L266.638 18.3068L266.325 32.1096C266.303 33.1306 266.498 33.9031 266.914 34.4433C267.33 34.9782 267.946 35.2483 268.767 35.2483C268.826 35.2483 268.853 35.3077 268.853 35.4211C268.853 35.5346 268.826 35.594 268.767 35.594C268.345 35.594 267.908 35.5886 267.476 35.567C267.033 35.5454 266.53 35.54 265.979 35.54C265.428 35.54 264.883 35.5454 264.413 35.567C263.943 35.5886 263.494 35.594 263.073 35.594C263.013 35.594 262.986 35.5346 262.986 35.4211C262.986 35.3077 263.013 35.2483 263.073 35.2483C263.856 35.2483 264.472 34.9782 264.899 34.4433C265.331 33.9085 265.552 33.1306 265.574 32.1096V32.1042Z" fill="#EFE6D9"/>
</svg>
