<svg width="297" height="172" viewBox="0 0 297 172" fill="none" xmlns="http://www.w3.org/2000/svg">
<g clip-path="url(#clip0_2076_3808)">
<path d="M95.6309 92.8127C98.4746 92.8127 99.1569 91.4399 99.2143 85.1537V60.8156C99.1569 54.5314 98.4727 53.1565 95.6309 53.1565V53.0413H109.166C131.404 53.0413 131.346 92.9796 109.166 92.9796H95.6309V92.8068V92.8108V92.8127ZM109.166 53.677L103.082 53.6194V92.3578H109.166C125.659 92.3578 125.659 53.677 109.166 53.677Z" fill="#FFC87B"/>
<path d="M180.248 53.0432V91.4756C180.248 92.3081 179.578 92.9816 178.749 92.9816C178.231 92.9816 177.751 92.7134 177.476 92.2703L155.908 57.442V76.527C155.908 86.8106 157.045 90.9272 163.417 92.8087V92.9816H155.283V54.6247C155.283 53.7525 155.987 53.0432 156.857 53.0432C157.401 53.0432 157.905 53.3253 158.192 53.7883L179.681 88.41V69.4402C179.681 59.2122 178.486 55.0399 172.115 53.1584V53.0432H180.248Z" fill="#FFC87B"/>
<path d="M218.968 92.8087V92.9816H207.99V92.8087C210.776 92.8087 210.948 90.4663 208.047 82.0682L199.745 56.9274C199.631 56.4704 199.004 56.4704 198.838 56.9274L192.812 74.6396C197.305 74.6972 201.114 76.6939 204.927 80.1231L204.812 80.2383C202.083 78.5813 198.952 77.6118 195.77 77.6118C194.404 77.6118 193.041 77.7846 191.675 78.184C188.149 88.7517 188.602 92.8087 194.121 92.8087V92.9816H185.819C185.762 92.9816 185.762 92.924 185.762 92.8663L190.765 78.4661C189.571 78.9231 188.491 79.4933 187.409 80.2383L185.76 76.0661C188.034 75.1541 190.138 74.6932 192.072 74.6356L199.409 53.5518C199.692 52.7492 200.374 52.3518 201.058 52.3518C201.743 52.3518 202.425 52.7512 202.708 53.5518L212.606 83.3775C215.277 91.0365 216.304 92.8028 218.976 92.8028L218.968 92.8067V92.8087Z" fill="#FFC87B"/>
<path d="M233.181 91.0902C236.703 91.0902 240.225 89.1312 242.084 85.5431L242.468 85.7358C240.277 90.52 235.948 93.0054 231.566 93.0054C225.045 93.0054 218.381 87.504 218.381 75.8356C218.381 64.1672 225.188 58.4751 232.851 58.4751C235.804 58.4751 238.896 59.385 241.754 61.1076L241.517 66.9885H241.467C239.134 61.8705 235.376 59.1943 231.759 59.1943C226.711 59.1943 221.954 64.503 221.954 75.8376C221.954 86.3616 227.618 91.0941 233.189 91.0941H233.185L233.181 91.0902Z" fill="#FFC87B"/>
<path d="M149.808 81.5793C148.079 84.9966 146.09 85.7337 139.967 85.7337H135.361V72.8514H135.832C140.908 72.8514 143.108 74.0613 144.314 76.4276H144.472L145.831 72.3269H135.361V60.283H138.868C144.99 60.283 146.98 61.0201 148.708 64.4374H148.866V59.7048H128.503V59.8638C131.121 59.8638 131.75 61.1274 131.802 66.9129V79.1157C131.748 84.9012 131.119 86.1648 128.503 86.1648V86.3238H149.966V81.5913H149.808V81.5833V81.5793Z" fill="#FFC87B"/>
<path d="M296.564 77.9377C294.836 81.355 292.847 82.0921 286.724 82.0921H282.118V69.2098H282.589C287.665 69.2098 289.864 70.4197 291.071 72.786H291.229L292.588 68.6853H282.118V56.6414H285.624C291.747 56.6414 293.736 57.3785 295.465 60.7958H295.623V56.0632H275.26V56.2222C277.878 56.2222 278.507 57.4858 278.558 63.2713V75.4741C278.505 81.2597 277.876 82.5232 275.26 82.5232V82.6822H296.723V77.9497H296.564V77.9417V77.9377Z" fill="#FFC87B"/>
<path d="M135.924 40.7151C135.681 41.7919 135.28 42.8628 134.508 43.6853C132.95 45.2748 130.102 45.7099 128.103 44.7085C124.268 42.7098 125.51 37.9356 128.388 35.6269C130.191 34.1289 132.45 33.2964 134.759 33.056C139.342 32.4779 143.667 34.0832 147.806 35.7481C152.841 37.7428 157.86 39.7376 163.073 41.184C168.183 42.5111 173.556 43.5006 178.838 43.0635C179.072 43.0396 179.329 42.9979 179.558 42.9443C181.346 42.5509 183.114 41.9767 184.755 41.1681C187.506 39.8071 190.043 37.6515 190.686 34.562C190.907 33.5885 190.846 32.5931 190.457 31.6692C189.149 28.5679 185.471 27.4354 183.013 30.0023C182.269 30.7831 181.882 31.852 181.85 32.9309C181.587 30.2825 183.877 27.9579 186.509 27.948C188.592 27.9818 190.464 29.3984 191.374 31.25C192.456 33.4276 191.835 36.068 190.619 38.0587C188.754 41.0171 185.578 42.8032 182.39 43.9694C181.304 44.337 180.215 44.6906 179.074 44.8635C177.63 45.0582 176.265 45.08 174.849 45.0463C165.127 44.8198 155.936 41.2614 147.082 37.5561C145.073 36.7256 143.081 35.8971 141.066 35.319C137.182 34.2302 132.58 34.1587 129.224 36.6759C126.851 38.3727 125.449 42.2012 128.479 44.0072C130.173 44.9887 132.796 44.7721 134.295 43.4608C135.104 42.7476 135.578 41.7264 135.924 40.7131V40.7151Z" fill="#FFC87B"/>
<path d="M84.2897 30.5905C84.5488 27.809 85.9094 24.642 88.8382 23.8394C90.7941 23.3347 92.9299 23.8791 94.504 25.1228C97.9134 27.9123 97.3597 32.9706 94.858 36.1852C93.098 38.5833 90.5113 40.1966 87.8059 41.3052C84.0109 42.9542 79.678 43.2383 75.6536 42.3502C72.1868 41.5972 68.9693 39.9582 65.7695 38.4859C62.4195 36.8925 59.1188 35.2475 55.7194 33.96C48.8907 31.4209 41.0317 32.5057 34.7607 36.2329C39.2024 32.8216 44.9889 31.0514 50.6211 31.3832C56.2869 31.6772 61.5157 34.5163 66.5843 36.7117C68.6627 37.6594 70.7768 38.5773 72.9007 39.4098C73.7037 39.7038 74.6015 39.9919 75.438 40.1926C79.2765 41.1562 83.4058 41.0171 87.0762 39.5012C88.7077 38.8674 90.3096 38.0568 91.6721 36.9601C93.007 35.8852 94.1382 34.5461 94.8264 32.9686C95.8053 30.7017 95.6748 27.7434 93.7447 26.0248C92.4968 24.9142 90.6695 24.3221 89.0182 24.6142C86.2812 25.1685 84.8474 28.0573 84.2878 30.5924L84.2897 30.5905Z" fill="#FFC87B"/>
<path d="M30.7891 119.934C36.5597 121.679 42.9316 121.456 48.4016 118.85C53.9705 116.273 58.5605 112.309 63.9732 109.285C68.498 106.694 73.5112 104.845 78.6965 104.175C81.8408 103.762 85.0722 103.549 88.2008 104.314C90.3544 104.815 92.4091 106.007 93.8587 107.714C97.1178 111.218 97.5489 116.533 93.7856 119.847C88.3669 124.595 80.5435 122.471 78.3286 115.613C79.9226 119.269 83.767 121.959 87.7776 121.307C89.6721 121.031 91.4757 120.125 92.7987 118.794C96.1824 115.454 94.8456 110.813 91.4124 108.067C88.7723 105.949 85.2522 105.824 81.9516 106.027C75.9871 106.408 70.2284 108.204 64.9759 111.111C59.583 114.002 54.6943 117.886 48.9573 120.177C43.1926 122.553 36.4332 122.404 30.7871 119.934H30.7891Z" fill="#FFC87B"/>
<path d="M3.41088 117.518C2.67126 116.835 1.92768 116.139 1.3344 115.305C0.147838 113.622 -0.279323 111.405 0.17948 109.39C0.691678 107.09 2.19268 105.067 4.12677 103.76L4.75565 103.321C8.62581 100.674 13.461 99.9432 18.0511 100.116C24.1796 100.36 30.154 101.99 35.9048 104.046C43.5403 106.802 50.8258 110.459 57.8661 114.488C69.7139 121.587 81.9533 129.493 96.0516 130.554C105.255 131.241 116.664 129.455 124.428 124.253C129.068 121.132 133.209 115.659 132.099 109.786C131.656 107.447 130.296 105.284 128.334 103.935C127.165 103.078 125.775 102.596 124.345 102.443C120.439 101.868 116.276 103.664 114.562 107.368C113.682 109.156 113.415 111.226 113.607 113.235C113.456 112.235 113.419 111.212 113.52 110.197C113.775 107.098 115.592 104.183 118.379 102.731C120.451 101.612 122.903 101.332 125.211 101.686C129.222 102.21 132.497 105.602 133.329 109.517C133.816 111.604 133.675 113.833 132.999 115.861C130.679 123.004 123.88 127.504 117.117 129.86C98.6442 136.001 83.5096 132.107 67.1944 122.535C65.4344 121.526 63.6961 120.481 61.9736 119.422C53.4976 114.103 44.626 109.265 35.3116 105.651C25.914 102.141 12.7768 98.3259 3.94483 104.807C0.654104 107.189 -0.771746 111.598 1.47085 115.216C2.00481 116.064 2.70883 116.797 3.41088 117.52V117.518Z" fill="#FFC87B"/>
<path d="M112.183 118.126C110.534 118.291 108.88 118.456 107.162 118.627C107.824 119.507 108.439 120.326 109.056 121.142L109.001 121.198C108.214 120.586 107.425 119.972 106.575 119.31C106.395 121.251 106.223 123.129 106.049 125.012H105.962C105.78 123.137 105.6 121.259 105.408 119.3C104.571 119.954 103.78 120.57 102.991 121.182C102.973 121.164 102.952 121.144 102.932 121.126C103.545 120.322 104.158 119.513 104.826 118.629C103.145 118.458 101.53 118.293 99.918 118.128V118.053C101.534 117.884 103.145 117.717 104.832 117.542C104.164 116.644 103.539 115.808 102.91 114.971C102.926 114.955 102.942 114.939 102.956 114.926C103.751 115.53 104.553 116.13 105.414 116.781C105.6 114.932 105.776 113.132 105.956 111.335H106.039C106.215 113.141 106.385 114.945 106.569 116.815C107.413 116.175 108.212 115.571 109.007 114.973C109.025 114.991 109.041 115.007 109.06 115.027C108.447 115.845 107.838 116.668 107.178 117.554C108.892 117.723 110.542 117.886 112.189 118.049V118.124H112.183V118.126Z" fill="#FFC87B"/>
<path d="M25.5844 118.901C23.3319 119.13 21.0754 119.352 18.7241 119.587C19.6278 120.789 20.4683 121.907 21.3088 123.026L21.2336 123.101C20.1598 122.263 19.082 121.43 17.9212 120.522C17.6759 123.171 17.4366 125.738 17.2033 128.311H17.0866C16.8414 125.75 16.5902 123.183 16.3331 120.504C15.1901 121.395 14.1103 122.239 13.0306 123.077C13.0068 123.053 12.9732 123.024 12.9495 123.002C13.784 121.899 14.6245 120.798 15.5342 119.591C13.2362 119.356 11.0312 119.134 8.82617 118.905V118.8C11.0312 118.565 13.2362 118.343 15.5461 118.102C14.6304 116.879 13.7781 115.728 12.9218 114.586C12.9455 114.562 12.9633 114.544 12.9851 114.522C14.0767 115.343 15.1664 116.169 16.345 117.059C16.5962 114.528 16.8414 112.073 17.0866 109.623H17.2033C17.4426 112.09 17.6759 114.558 17.9271 117.107C19.082 116.233 20.1736 115.408 21.2574 114.594C21.2811 114.618 21.3048 114.641 21.3266 114.663C20.492 115.782 19.6575 116.908 18.7537 118.12C21.0992 118.355 23.3497 118.577 25.5962 118.8V118.905L25.5844 118.899V118.901Z" fill="#FFC87B"/>
<path d="M42.9711 44.8994C41.3771 45.0603 39.7792 45.2193 38.1141 45.3842C38.7548 46.2345 39.3481 47.0273 39.9434 47.82L39.89 47.8736C39.1306 47.2796 38.3652 46.6915 37.5445 46.0478C37.3705 47.9233 37.2024 49.7412 37.0363 51.5611H36.9532C36.7792 49.7472 36.6012 47.9312 36.4213 46.0339C35.6124 46.6637 34.8471 47.2617 34.0837 47.8557C34.0679 47.8398 34.0422 47.818 34.0264 47.8021C34.6177 47.0213 35.211 46.2425 35.8557 45.3882C34.2281 45.2213 32.6678 45.0643 31.1055 44.9034V44.8279C32.6658 44.661 34.2281 44.504 35.8636 44.3332C35.2149 43.4669 34.6118 42.6523 34.0046 41.8437L34.0501 41.798C34.8234 42.3782 35.5946 42.9643 36.4292 43.5941C36.6072 41.802 36.7812 40.0636 36.9532 38.3291H37.0363C37.2064 40.0755 37.3705 41.8219 37.5485 43.6279C38.3652 43.01 39.1385 42.4239 39.9058 41.8477C39.9216 41.8636 39.9394 41.8815 39.9552 41.8974C39.3639 42.6901 38.7746 43.4868 38.1339 44.3451C39.795 44.512 41.389 44.6689 42.979 44.8259V44.9014L42.9711 44.8974V44.8994Z" fill="#FFC87B"/>
<path d="M154.89 130.331C152.244 130.597 149.59 130.858 146.835 131.138C147.897 132.547 148.886 133.862 149.873 135.177L149.784 135.266C148.518 134.283 147.259 133.303 145.892 132.237C145.605 135.35 145.328 138.366 145.05 141.388H144.909C144.618 138.376 144.328 135.364 144.023 132.225C142.678 133.274 141.413 134.257 140.143 135.245C140.112 135.213 140.078 135.183 140.046 135.155C141.029 133.862 142.012 132.568 143.084 131.146C140.386 130.868 137.794 130.605 135.205 130.339V130.22C137.798 129.95 140.39 129.68 143.096 129.401C142.024 127.961 141.019 126.616 140.015 125.273C140.04 125.247 140.064 125.223 140.09 125.197C141.369 126.163 142.651 127.133 144.035 128.178C144.33 125.205 144.616 122.323 144.903 119.44H145.04C145.322 122.34 145.595 125.237 145.886 128.231C147.245 127.204 148.522 126.238 149.802 125.277L149.885 125.36C148.902 126.676 147.923 127.995 146.861 129.417C149.612 129.688 152.262 129.954 154.902 130.214V130.333H154.898L154.89 130.329V130.331Z" fill="#FFC87B"/>
<path d="M222.929 44.6491C221.235 44.8199 219.54 44.9868 217.774 45.1636C218.456 46.0656 219.087 46.906 219.718 47.7465L219.66 47.8041C218.854 47.1782 218.045 46.5464 217.169 45.863C216.985 47.8557 216.805 49.7869 216.631 51.716H216.54C216.352 49.7889 216.168 47.8617 215.974 45.8511C215.116 46.5206 214.305 47.1524 213.49 47.7862C213.472 47.7683 213.447 47.7465 213.429 47.7286C214.056 46.8981 214.687 46.0736 215.373 45.1636C213.647 44.9868 211.987 44.8199 210.332 44.6491V44.5736C211.991 44.3987 213.648 44.2298 215.381 44.049C214.697 43.1292 214.054 42.2669 213.409 41.4086C213.423 41.3947 213.441 41.3768 213.457 41.3609C214.275 41.9808 215.098 42.6007 215.98 43.2702C216.168 41.3689 216.352 39.5212 216.536 37.6814H216.623C216.803 39.5351 216.979 41.3907 217.163 43.306C218.031 42.6503 218.85 42.0305 219.668 41.4146C219.686 41.4324 219.704 41.4503 219.722 41.4682C219.095 42.3086 218.468 43.153 217.79 44.0649C219.55 44.2398 221.244 44.4047 222.935 44.5755V44.651L222.931 44.6471L222.929 44.6491Z" fill="#FFC87B"/>
<path d="M247.333 6.93385C245.646 7.10273 243.961 7.26962 242.203 7.44644C242.881 8.34447 243.508 9.1809 244.137 10.0154L244.08 10.073C243.277 9.44912 242.472 8.82328 241.6 8.14181C241.416 10.1246 241.238 12.0458 241.066 13.9671H240.977C240.791 12.0498 240.607 10.1326 240.413 8.13188C239.559 8.79944 238.752 9.42528 237.941 10.0571C237.923 10.0392 237.898 10.0173 237.88 9.99946C238.505 9.17494 239.132 8.35241 239.814 7.44843C238.095 7.2716 236.446 7.1067 234.799 6.93584V6.86034C236.448 6.68749 238.099 6.51861 239.822 6.33781C239.14 5.4219 238.501 4.56361 237.86 3.71128C237.874 3.69737 237.892 3.67949 237.908 3.6636C238.722 4.2795 239.539 4.89541 240.419 5.56297C240.605 3.67155 240.789 1.83178 240.971 0.00195312H241.058C241.238 1.84768 241.414 3.6934 241.596 5.59873C242.46 4.94706 243.275 4.32917 244.09 3.71724C244.107 3.73512 244.125 3.753 244.143 3.77089C243.518 4.60732 242.895 5.44773 242.221 6.35569C243.971 6.52854 245.658 6.69543 247.341 6.86431V6.93981L247.337 6.93584L247.333 6.93385Z" fill="#FFC87B"/>
<path d="M157.876 109.13C155.989 109.428 154.102 109.726 152.143 110.032C152.961 110.998 153.719 111.9 154.48 112.8L154.419 112.869C153.478 112.218 152.53 111.566 151.506 110.857C151.429 113.098 151.348 115.267 151.272 117.445L151.172 117.451C150.843 115.305 150.511 113.163 150.167 110.924C149.245 111.731 148.379 112.486 147.511 113.245C147.487 113.225 147.46 113.203 147.442 113.183C148.094 112.214 148.745 111.25 149.455 110.189C147.511 110.1 145.648 110.02 143.779 109.935L143.773 109.845C145.621 109.545 147.462 109.249 149.388 108.935C148.563 107.948 147.788 107.026 147.017 106.102C147.033 106.084 147.05 106.065 147.066 106.047C148.021 106.688 148.98 107.326 150.013 108.022C150.104 105.882 150.195 103.806 150.28 101.729L150.377 101.723C150.697 103.79 151.011 105.854 151.34 107.986C152.271 107.197 153.147 106.45 154.023 105.709C154.047 105.729 154.065 105.747 154.089 105.766C153.438 106.748 152.791 107.729 152.087 108.794C154.071 108.876 155.973 108.955 157.878 109.037L157.884 109.126H157.88L157.876 109.13Z" fill="#FFC87B"/>
<path d="M171.306 122.338C169.405 122.529 167.505 122.72 165.531 122.914C166.294 123.924 166.998 124.867 167.708 125.811L167.643 125.877C166.739 125.173 165.832 124.468 164.849 123.701C164.645 125.934 164.443 128.094 164.246 130.266H164.145C163.937 128.104 163.725 125.946 163.51 123.693C162.545 124.446 161.637 125.15 160.727 125.859C160.706 125.837 160.678 125.815 160.662 125.793C161.368 124.863 162.072 123.938 162.839 122.918C160.903 122.72 159.048 122.533 157.188 122.342V122.253C159.048 122.058 160.903 121.867 162.843 121.663C162.076 120.632 161.352 119.666 160.634 118.7C160.652 118.683 160.67 118.665 160.688 118.647C161.605 119.342 162.527 120.034 163.518 120.787C163.729 118.657 163.937 116.589 164.139 114.52H164.236C164.439 116.602 164.637 118.679 164.845 120.828C165.82 120.093 166.735 119.398 167.653 118.706C167.675 118.728 167.693 118.746 167.714 118.768C167.008 119.712 166.308 120.655 165.545 121.679C167.52 121.873 169.415 122.06 171.312 122.251V122.34H171.308L171.306 122.338Z" fill="#FFC87B"/>
<path d="M183.851 110.708C181.951 110.898 180.051 111.089 178.077 111.284C178.84 112.293 179.544 113.237 180.254 114.181L180.189 114.246C179.285 113.543 178.377 112.837 177.395 112.071C177.191 114.304 176.989 116.463 176.791 118.635H176.691C176.483 116.473 176.271 114.316 176.056 112.063C175.091 112.816 174.183 113.519 173.273 114.228C173.252 114.206 173.224 114.185 173.208 114.163C173.914 113.233 174.618 112.307 175.385 111.288C173.449 111.089 171.594 110.902 169.733 110.712V110.622C171.594 110.428 173.449 110.237 175.389 110.032C174.622 109.001 173.898 108.035 173.18 107.07C173.198 107.052 173.216 107.034 173.234 107.016C174.151 107.712 175.073 108.403 176.064 109.156C176.275 107.026 176.483 104.958 176.685 102.89H176.782C176.985 104.972 177.183 107.048 177.391 109.198C178.366 108.463 179.281 107.767 180.199 107.076C180.221 107.098 180.238 107.116 180.26 107.137C179.554 108.081 178.854 109.025 178.091 110.048C180.066 110.243 181.961 110.43 183.857 110.62V110.71H183.853L183.851 110.708Z" fill="#FFC87B"/>
<path d="M211.457 26.6587C210.003 26.8037 208.55 26.9507 207.039 27.0997C207.622 27.8726 208.162 28.5938 208.704 29.315L208.653 29.3666C207.961 28.8282 207.266 28.2898 206.515 27.7037C206.361 29.4104 206.204 31.0634 206.052 32.7243H205.975C205.817 31.0713 205.655 29.4223 205.489 27.6977C204.751 28.2739 204.055 28.8123 203.361 29.3547C203.343 29.3368 203.323 29.321 203.309 29.3031C203.849 28.5918 204.389 27.8845 204.974 27.1037C203.493 26.9507 202.075 26.8097 200.651 26.6626V26.5951C202.075 26.4461 203.493 26.301 204.978 26.1441C204.391 25.3553 203.839 24.6162 203.289 23.8772C203.303 23.8633 203.317 23.8493 203.329 23.8374C204.031 24.3699 204.735 24.8984 205.495 25.4745C205.657 23.8454 205.815 22.2639 205.969 20.6804H206.044C206.199 22.2718 206.351 23.8613 206.509 25.5043C207.255 24.9421 207.955 24.4096 208.657 23.8811C208.674 23.899 208.686 23.9109 208.704 23.9288C208.164 24.65 207.628 25.3712 207.045 26.154C208.556 26.303 210.005 26.4461 211.455 26.5911V26.6587H211.451H211.457Z" fill="#FFC87B"/>
<path d="M241.109 25.1806C238.127 25.4766 235.143 25.7746 232.04 26.0905C233.241 27.678 234.348 29.1621 235.457 30.6363L235.357 30.7376C233.935 29.633 232.513 28.5303 230.97 27.3243C230.648 30.831 230.334 34.2264 230.019 37.6318H229.863C229.54 34.2363 229.206 30.8489 228.866 27.3044C227.351 28.4826 225.929 29.5952 224.498 30.7098C224.46 30.672 224.424 30.6442 224.387 30.6085C225.494 29.1522 226.604 27.6958 227.804 26.0905C224.767 25.7746 221.848 25.4865 218.929 25.1806V25.0415C221.848 24.7355 224.765 24.4375 227.812 24.1137C226.602 22.4905 225.477 20.9785 224.339 19.4646C224.367 19.4368 224.395 19.409 224.422 19.3811C225.862 20.4659 227.304 21.5606 228.864 22.7388C229.196 19.3891 229.521 16.1427 229.843 12.8943H229.999C230.314 16.1606 230.628 19.4268 230.951 22.7944C232.483 21.6342 233.925 20.5494 235.357 19.4646C235.394 19.5023 235.422 19.5302 235.45 19.558C234.342 21.0421 233.243 22.5262 232.042 24.1315C235.145 24.4375 238.119 24.7355 241.102 25.0316V25.1706L241.111 25.1806H241.109Z" fill="#FFC87B"/>
<path d="M248.739 37.9378C247.534 38.057 246.328 38.1762 245.074 38.3053C245.559 38.9471 246.01 39.5451 246.459 40.1431L246.419 40.1828C245.845 39.7358 245.268 39.2888 244.647 38.806C244.518 40.2226 244.392 41.5954 244.263 42.9703H244.202C244.07 41.6014 243.937 40.2285 243.797 38.7981C243.184 39.2769 242.606 39.7239 242.033 40.1709C242.019 40.157 242.001 40.1451 241.989 40.1312C242.434 39.5411 242.885 38.953 243.373 38.3073C242.147 38.1841 240.967 38.0629 239.79 37.9398V37.8861C240.971 37.7629 242.149 37.6417 243.379 37.5146C242.891 36.859 242.436 36.247 241.977 35.6371C241.991 35.6232 241.999 35.6152 242.013 35.6013C242.594 36.0404 243.178 36.4834 243.807 36.9563C243.943 35.6053 244.072 34.29 244.204 32.9788H244.265C244.394 34.298 244.516 35.6192 244.649 36.9782C245.266 36.5093 245.847 36.0702 246.431 35.6311C246.445 35.645 246.457 35.6569 246.47 35.6709C246.025 36.2689 245.58 36.8709 245.094 37.5186C246.346 37.6417 247.55 37.7629 248.753 37.8821V37.9358L248.739 37.9398V37.9378Z" fill="#FFC87B"/>
<path d="M224.442 9.02799C223.237 9.14719 222.031 9.2664 220.777 9.39554C221.262 10.0373 221.713 10.6353 222.162 11.2333L222.122 11.2731C221.549 10.826 220.971 10.379 220.35 9.89621C220.222 11.3128 220.095 12.6857 219.966 14.0605H219.905C219.773 12.6916 219.64 11.3188 219.5 9.88827C218.887 10.3671 218.309 10.8141 217.736 11.2611C217.722 11.2472 217.704 11.2353 217.692 11.2214C218.137 10.6313 218.588 10.0432 219.077 9.39753C217.85 9.27435 216.67 9.15315 215.493 9.02997V8.97633C216.674 8.85315 217.852 8.73196 219.082 8.6048C218.594 7.94916 218.139 7.33723 217.68 6.72729C217.694 6.71338 217.702 6.70543 217.716 6.69153C218.297 7.13061 218.881 7.57366 219.51 8.04651C219.646 6.6955 219.775 5.38025 219.907 4.06897H219.968C220.097 5.3882 220.22 6.70941 220.352 8.06837C220.969 7.59949 221.551 7.16041 222.134 6.72133C222.148 6.73524 222.16 6.74716 222.173 6.76106C221.729 7.35909 221.284 7.96108 220.797 8.60878C222.049 8.73196 223.253 8.85315 224.456 8.97236V9.026L224.442 9.02997V9.02799Z" fill="#FFC87B"/>
<path d="M29.5116 38.9133C28.5683 39.0067 27.623 39.1 26.6421 39.2014C27.0218 39.704 27.3738 40.1729 27.7258 40.6418L27.6942 40.6736C27.2453 40.3239 26.7924 39.9722 26.3059 39.5948C26.205 40.7054 26.1062 41.7802 26.0053 42.8571H25.9578C25.855 41.7842 25.7502 40.7093 25.6395 39.5888C25.1589 39.9643 24.706 40.314 24.2571 40.6636C24.2472 40.6537 24.2334 40.6438 24.2235 40.6319C24.5715 40.1709 24.9255 39.708 25.3072 39.2014C24.3461 39.104 23.4206 39.0106 22.499 38.9133V38.8716C23.4245 38.7742 24.3461 38.6808 25.3112 38.5795C24.9275 38.0669 24.5715 37.5861 24.2136 37.1073C24.2235 37.0974 24.2314 37.0894 24.2413 37.0795C24.6981 37.4232 25.153 37.7709 25.6474 38.1404C25.7542 37.0815 25.855 36.0523 25.9578 35.0251H26.0053C26.1062 36.0583 26.2031 37.0934 26.3059 38.1583C26.7904 37.7908 27.2453 37.447 27.7021 37.1033C27.712 37.1133 27.7219 37.1232 27.7337 37.1351C27.3857 37.604 27.0356 38.0749 26.6559 38.5815C27.6368 38.6788 28.5801 38.7722 29.5235 38.8656V38.9073L29.5136 38.9113L29.5116 38.9133Z" fill="#FFC87B"/>
<path d="M102.742 30.3262C105.24 30.5765 107.744 30.8249 110.348 31.0851C109.345 32.4163 108.414 33.658 107.479 34.8978L107.566 34.9852C108.756 34.0594 109.951 33.1315 111.242 32.1222C111.511 35.0587 111.776 37.9097 112.037 40.7608H112.168C112.442 37.9177 112.715 35.0726 113.006 32.1063C114.274 33.0938 115.472 34.0276 116.669 34.9594C116.698 34.9296 116.73 34.9018 116.758 34.872C115.828 33.6501 114.903 32.4262 113.888 31.0891C116.433 30.8288 118.88 30.5805 121.328 30.3302V30.2169C118.881 29.9586 116.435 29.7083 113.88 29.4421C114.893 28.0811 115.84 26.8135 116.791 25.542C116.769 25.5201 116.744 25.4943 116.72 25.4705C115.514 26.3844 114.301 27.2943 112.996 28.2858C112.717 25.4804 112.448 22.7545 112.175 20.0366H112.047C111.782 22.7744 111.521 25.5082 111.246 28.3374C109.964 27.3698 108.758 26.4559 107.55 25.544C107.52 25.5738 107.498 25.5956 107.471 25.6235C108.4 26.8652 109.322 28.1109 110.324 29.456C107.728 29.7143 105.226 29.9606 102.734 30.209V30.3222H102.738L102.742 30.3262Z" fill="#FFC87B"/>
<path d="M115.954 14.5491C117.566 14.7101 119.176 14.873 120.851 15.0379C120.204 15.8942 119.607 16.6949 119.004 17.4935L119.059 17.5492C119.824 16.9512 120.596 16.3551 121.428 15.7054C121.6 17.5988 121.772 19.4307 121.94 21.2704H122.025C122.201 19.4386 122.381 17.6088 122.563 15.6975C123.382 16.3352 124.151 16.9333 124.923 17.5333C124.94 17.5154 124.964 17.4955 124.978 17.4776C124.381 16.6889 123.782 15.9041 123.131 15.0399C124.772 14.871 126.347 14.714 127.923 14.5511V14.4756C126.345 14.3107 124.772 14.1498 123.127 13.9769C123.778 13.1027 124.391 12.2822 125 11.4636C124.984 11.4478 124.97 11.4338 124.954 11.418C124.177 12.008 123.396 12.5941 122.553 13.2319C122.374 11.4259 122.198 9.67157 122.025 7.91724H121.942C121.77 9.6815 121.602 11.4438 121.426 13.2657C120.6 12.6418 119.822 12.0517 119.045 11.4676C119.027 11.4855 119.012 11.5014 118.994 11.5193C119.591 12.32 120.186 13.1186 120.833 13.9869C119.158 14.1518 117.55 14.3107 115.944 14.4716V14.5471H115.948L115.954 14.5491Z" fill="#FFC87B"/>
<path d="M98.8761 18.9736C99.8966 19.075 100.921 19.1763 101.983 19.2856C101.572 19.8299 101.19 20.3366 100.808 20.8432L100.842 20.877C101.328 20.4975 101.817 20.118 102.345 19.7087C102.454 20.9108 102.562 22.075 102.669 23.2393H102.721C102.833 22.079 102.944 20.9147 103.065 19.7008C103.585 20.1061 104.073 20.4856 104.56 20.8651C104.572 20.8531 104.585 20.8432 104.597 20.8313C104.22 20.3326 103.838 19.8319 103.423 19.2836C104.461 19.1783 105.464 19.0769 106.462 18.9716V18.926C105.46 18.8207 104.463 18.7193 103.419 18.6101C103.834 18.0538 104.22 17.5352 104.607 17.0186C104.595 17.0067 104.589 17.0008 104.578 16.9888C104.083 17.3604 103.591 17.7359 103.057 18.1372C102.94 16.9908 102.833 15.8762 102.721 14.7656H102.669C102.56 15.8842 102.456 17.0047 102.345 18.1571C101.821 17.7597 101.328 17.3862 100.834 17.0147C100.822 17.0266 100.812 17.0365 100.8 17.0484C101.178 17.5551 101.556 18.0657 101.967 18.614C100.905 18.7193 99.8847 18.8207 98.8643 18.922V18.9677L98.8761 18.9716V18.9736Z" fill="#FFC87B"/>
<path d="M280.746 37.2205C279.542 37.3397 278.336 37.4589 277.082 37.588C277.567 38.2298 278.017 38.8278 278.466 39.4258L278.427 39.4656C277.853 39.0185 277.276 38.5715 276.655 38.0887C276.526 39.5053 276.4 40.8782 276.271 42.253H276.21C276.077 40.8841 275.945 39.5113 275.804 38.0808C275.191 38.5596 274.614 39.0066 274.04 39.4536C274.027 39.4397 274.009 39.4278 273.997 39.4139C274.442 38.8238 274.893 38.2357 275.381 37.59C274.155 37.4669 272.975 37.3457 271.798 37.2225V37.1688C272.978 37.0457 274.157 36.9245 275.387 36.7973C274.899 36.1417 274.444 35.5297 273.985 34.9198C273.999 34.9059 274.007 34.8979 274.021 34.884C274.602 35.3231 275.185 35.7662 275.814 36.239C275.951 34.888 276.079 33.5728 276.212 32.2615H276.273C276.402 33.5807 276.524 34.9019 276.657 36.2609C277.274 35.792 277.855 35.3529 278.439 34.9138C278.452 34.9277 278.464 34.9397 278.478 34.9536C278.033 35.5516 277.588 36.1536 277.102 36.8013C278.354 36.9245 279.558 37.0457 280.76 37.1649V37.2185L280.746 37.2225V37.2205Z" fill="#FFC87B"/>
<path d="M35.4563 26.8792C34.3291 26.9905 33.1979 27.1037 32.0252 27.2229C32.48 27.8249 32.9012 28.3852 33.3225 28.9455L33.2849 28.9832C32.749 28.564 32.2071 28.1448 31.6237 27.6938C31.5031 29.021 31.3844 30.3084 31.2638 31.5938H31.2064C31.0818 30.3124 30.9592 29.0249 30.8267 27.6858C30.2532 28.1349 29.7114 28.5521 29.1754 28.9713C29.1636 28.9594 29.1458 28.9455 29.1339 28.9335C29.5512 28.3812 29.9724 27.8309 30.4312 27.2249C29.2822 27.1097 28.1767 26.9964 27.0732 26.8812V26.8315C28.1807 26.7163 29.2822 26.603 30.4352 26.4838C29.9764 25.8699 29.5512 25.2977 29.122 24.7255C29.1339 24.7136 29.1418 24.7057 29.1557 24.6918C29.7015 25.103 30.2453 25.5183 30.8366 25.9613C30.9652 24.6957 31.0838 23.4639 31.2084 22.2361H31.2658C31.3864 23.4719 31.5011 24.7096 31.6257 25.9832C32.2031 25.5441 32.749 25.1328 33.2948 24.7216C33.3066 24.7335 33.3205 24.7474 33.3323 24.7593C32.9151 25.3196 32.4978 25.8838 32.043 26.4898C33.2157 26.605 34.3429 26.7183 35.4701 26.8295V26.8792L35.4583 26.8832L35.4563 26.8792Z" fill="#FFC87B"/>
<path d="M268.299 24.6818C266.398 24.8725 264.498 25.0632 262.524 25.2579C263.288 26.2672 263.992 27.211 264.701 28.1547L264.636 28.2202C263.732 27.5169 262.825 26.8116 261.842 26.0447C261.638 28.2779 261.436 30.4375 261.239 32.609H261.138C260.93 30.4474 260.719 28.2898 260.503 26.0368C259.538 26.7898 258.63 27.4931 257.721 28.2024C257.699 28.1805 257.671 28.1586 257.655 28.1368C258.361 27.207 259.065 26.2811 259.833 25.2619C257.897 25.0632 256.042 24.8765 254.181 24.6857V24.5963C256.042 24.4016 257.897 24.2109 259.837 24.0063C259.069 22.9751 258.345 22.0095 257.628 21.044C257.645 21.0261 257.663 21.0082 257.681 20.9903C258.599 21.6857 259.52 22.3771 260.511 23.1301C260.723 21.0003 260.93 18.932 261.132 16.8638H261.229C261.433 18.9459 261.63 21.0221 261.838 23.1718C262.813 22.4367 263.729 21.7413 264.646 21.0499C264.668 21.0718 264.686 21.0897 264.707 21.1115C264.001 22.0552 263.301 22.999 262.538 24.0222C264.514 24.2169 266.408 24.4036 268.305 24.5944V24.6838H268.301L268.299 24.6818Z" fill="#FFC87B"/>
<path d="M252.805 86.5127C252.771 84.4921 252.771 85.1517 252.771 85.1517L252.819 74.6575H258.109L262.711 74.4231C275.561 72.2535 274.768 53.0532 260.264 53.0532H245.363V53.1685C248.207 53.1685 248.889 54.5413 248.947 60.8255V85.1637C248.947 89.6081 247.964 91.8512 247.964 91.8512C247.807 92.2187 247.61 92.5684 247.376 92.9022C246.204 94.3982 244.861 95.7016 243.374 96.8718C239.935 99.5559 235.977 101.489 231.943 103.098C228.352 104.549 224.579 105.544 220.712 105.874C216.852 106.212 212.925 105.932 209.199 104.845C206.608 104.143 204.31 102.685 201.569 102.437C198.822 102.188 196.052 103.287 194.042 105.127C193.038 106.029 192.178 107.068 191.424 108.169C191.392 108.216 191.4 108.282 191.446 108.318C191.493 108.355 191.563 108.347 191.6 108.3C192.411 107.259 193.319 106.295 194.341 105.486C196.333 103.859 198.917 102.965 201.472 103.325C204.037 103.704 206.331 105.298 208.815 106.065C209.315 106.235 209.818 106.39 210.326 106.534C209.217 106.843 208.153 107.368 207.235 108.053C206.286 108.775 205.346 109.571 204.749 110.622C204.708 110.692 204.816 110.757 204.86 110.692C205.967 109.387 207.542 108.491 209.114 107.881C210.644 107.308 212.308 107.378 213.919 107.294C216.203 107.634 218.529 107.724 220.831 107.604C221.043 107.594 221.252 107.583 221.464 107.569C220.938 107.745 220.422 107.942 219.917 108.155C218.606 108.701 217.315 109.331 216.067 110.01C213.615 111.284 211.414 113.106 208.865 114.081C207.625 114.548 206.288 114.81 204.939 114.952C202.9 115.202 200.788 114.894 198.71 114.959C195.172 115.114 191.721 116.511 188.913 118.645C188.867 118.681 188.855 118.746 188.889 118.794C188.922 118.844 188.992 118.858 189.041 118.824C191.337 117.264 193.985 116.257 196.687 115.865C198.708 115.565 200.691 115.903 202.704 116.036C202.25 116.213 201.807 116.418 201.381 116.67C200.341 117.308 199.435 118.116 198.644 119.036C198.255 119.493 197.895 119.986 197.65 120.54C197.624 120.59 197.705 120.626 197.727 120.58C198.021 120.069 198.417 119.628 198.834 119.217C201.371 116.769 203.341 116.396 206.685 115.911C207.393 115.8 208.149 115.655 208.859 115.426C209.703 115.184 210.526 114.868 211.305 114.473C213.186 113.529 214.944 112.361 216.811 111.453C218.029 110.847 219.287 110.285 220.562 109.808C221.812 109.333 223.091 108.991 224.411 108.82C225.12 108.727 225.832 108.679 226.552 108.638C226.097 108.791 225.662 108.942 225.296 109.063C219.033 110.98 214.271 114.671 209.48 118.973L206.697 121.424C204.896 122.98 203.076 124.621 200.863 125.472C198.571 126.294 196.125 126.225 193.718 126.598C191.236 126.936 188.727 127.782 186.773 129.405C185.804 130.212 185.056 131.237 184.354 132.264C184.323 132.312 184.33 132.376 184.374 132.413C184.421 132.451 184.491 132.445 184.528 132.397C184.918 131.917 185.299 131.434 185.719 130.991C187.789 128.736 190.839 127.744 193.823 127.528C196.014 127.375 197.859 127.409 199.643 127.117C198.994 127.375 198.334 127.611 197.658 127.82C196.406 128.199 195.049 128.553 193.91 129.28C191.988 130.486 190.754 132.62 190.295 134.77C190.289 134.798 190.305 134.825 190.331 134.833C190.36 134.843 190.39 134.827 190.4 134.798C190.677 133.967 191.033 133.166 191.495 132.439C192.407 130.995 193.766 129.862 195.387 129.338C197.027 128.791 198.805 128.535 200.466 127.957C201.296 127.675 202.097 127.307 202.859 126.868C202.536 127.377 202.214 127.882 201.854 128.342C200.462 130.079 198.415 131.201 196.378 132.03C196.352 132.04 196.338 132.068 196.344 132.094C196.352 132.123 196.382 132.141 196.412 132.133C197.149 131.952 197.877 131.708 198.583 131.41C199.649 130.955 200.683 130.409 201.601 129.682C202.515 128.954 203.203 127.939 203.915 127.063C204.631 126.205 205.329 125.358 206.05 124.522C207.065 123.483 208.174 122.543 209.244 121.542C209.715 121.16 210.188 120.783 210.668 120.409C214.538 117.485 218.436 114.528 222.645 112.158C223.22 111.84 223.811 111.536 224.407 111.236C223.564 112.301 222.963 113.616 222.625 115.031C222.427 116.328 221.903 117.511 221.033 118.51C220.617 119.02 220.121 119.467 219.698 120.008C219.652 120.064 219.739 120.127 219.783 120.077C221.066 118.963 222.468 117.89 223.068 116.211C223.372 115.277 223.616 114.32 224.128 113.475C225.101 111.854 226.501 110.505 228.142 109.583C228.631 109.313 229.151 109.089 229.695 108.872C230.579 108.594 231.492 108.363 232.404 108.127C231.597 108.906 230.818 109.714 230.08 110.559C227.747 113.432 226.167 116.835 223.875 119.688C221.695 122.319 218.863 124.421 215.762 125.839C214.358 126.489 212.764 126.882 211.368 127.651C208.981 128.99 207.445 131.515 206.83 134.128C206.816 134.184 206.847 134.239 206.901 134.259C206.958 134.279 207.019 134.247 207.039 134.19C207.878 131.746 209.44 129.519 211.762 128.432C213.19 127.798 214.724 127.556 216.217 126.978C216.486 126.876 216.755 126.769 217.02 126.658C216.927 126.793 216.836 126.926 216.757 127.037C216.168 127.901 215.61 128.801 215.203 129.769C215.102 130.001 215.007 130.256 214.918 130.494C214.289 132.119 212.968 133.335 211.778 134.573C211.72 134.631 211.805 134.718 211.865 134.67C213.267 133.609 214.823 132.463 215.666 130.818C216.29 129.489 217.147 128.265 218.173 127.218C218.612 126.825 219.344 126.368 219.846 126.01C220.22 125.75 220.6 125.493 220.981 125.235C221.096 125.346 221.076 125.327 221.191 125.438C219.585 128.035 217.847 130.615 216.075 133.069C214.631 134.992 213.114 136.933 210.903 137.629C209.191 138.268 207.324 138.227 205.55 138.694C204.474 138.968 203.46 139.443 202.511 140.011C200.78 141.066 199.295 142.522 198.134 144.171C198.101 144.219 198.108 144.284 198.154 144.32C198.201 144.358 198.271 144.352 198.308 144.304C199.079 143.355 199.95 142.494 200.913 141.759C201.623 141.213 202.404 140.716 203.209 140.329C204.006 139.931 204.854 139.627 205.726 139.455C207.54 139.099 209.444 139.238 211.24 138.674C212.501 138.324 213.67 137.615 214.639 136.751C216.591 134.941 218.175 132.819 219.718 130.677C219.34 131.792 218.988 132.91 218.592 133.997C217.865 136.039 216.279 137.48 214.443 138.545C212.545 139.645 210.338 140.897 209.112 142.89C208.499 143.877 208.095 144.884 207.459 145.82C206.836 146.73 206.039 147.487 205.121 148.111C205.075 148.143 205.06 148.204 205.085 148.254C205.113 148.308 205.18 148.328 205.234 148.3C206.238 147.773 207.188 147.062 207.919 146.174C209.076 144.733 209.897 142.951 211.303 141.861C212.968 140.472 215.232 139.713 217.01 138.34C218.284 137.398 219.368 136.047 219.971 134.577C220.835 132.485 221.476 130.359 222.49 128.366C223.137 127.057 223.873 125.787 224.656 124.532C226.204 122.13 227.832 119.787 229.519 117.487C228.844 119.795 228.767 122.094 228.409 124.421C228.207 125.632 227.937 126.793 227.312 127.81C226.345 129.177 225.067 130.226 223.75 131.247C222.646 132.105 221.711 133.284 221.244 134.617C220.467 137.098 220.663 139.874 218.09 141.263C217.345 141.706 216.465 141.9 215.749 142.433C215.705 142.467 215.693 142.53 215.723 142.578C215.755 142.629 215.822 142.645 215.873 142.614C216.225 142.393 216.637 142.27 217.05 142.139C219.629 141.463 220.827 139.955 221.478 137.434C221.719 136.582 221.907 135.729 222.213 134.982C222.516 134.255 223.03 133.596 223.586 133.053C224.189 132.477 224.919 132.066 225.617 131.567C226.738 130.758 227.816 129.839 228.67 128.744C228.933 128.378 229.153 127.983 229.345 127.578C229.088 129.304 228.532 130.969 227.731 132.527C227.195 133.576 226.869 134.782 226.792 135.952C226.744 136.534 226.732 137.094 226.667 137.635C226.481 139.242 225.817 140.814 224.753 142.033C223.248 143.676 220.88 145.079 221.468 147.728C221.474 147.755 221.498 147.775 221.527 147.773C221.559 147.771 221.581 147.743 221.577 147.712C221.248 145.111 223.604 144.048 225.217 142.484C226.08 141.658 226.673 140.609 227.126 139.506C227.567 138.425 227.721 137.206 227.883 136.079C228.039 134.984 228.273 133.961 228.66 132.936C229.273 131.525 229.722 130.015 229.918 128.48C230.094 130.174 230.339 131.861 230.689 133.526C231.724 137.239 230.416 140.814 228.095 143.752C228.075 143.778 228.077 143.818 228.101 143.841C228.126 143.867 228.168 143.865 228.194 143.839C230.298 141.582 231.927 138.475 231.771 135.262C231.579 133.385 231.213 131.577 231.115 129.703C231.032 128.474 230.992 127.238 231.006 126.01C231.032 123.95 231.026 121.909 231.304 119.881C231.463 119.078 231.633 118.289 231.828 117.526C231.823 118.2 231.884 118.875 232.022 119.549C232.742 122.406 234.279 124.963 235.151 127.75C235.651 129.388 235.703 131.116 235.408 132.821C235.402 132.852 235.422 132.884 235.451 132.894C235.485 132.906 235.523 132.886 235.535 132.852C236.082 131.178 236.272 129.312 235.902 127.558C235.497 125.833 234.801 124.202 234.245 122.545C233.873 121.456 233.547 120.344 233.351 119.283C232.736 116.05 233.907 112.579 235.612 109.782C235.776 109.516 235.946 109.249 236.12 108.989C236.737 108.23 237.358 107.473 237.983 106.716C238.964 105.494 239.958 104.257 240.947 103.005C240.061 104.445 239.163 105.884 238.372 107.396C236.65 110.674 235.987 114.469 236.292 118.164C236.581 121.079 237.637 123.751 238.444 126.491C239.017 128.478 239.656 130.427 239.905 132.479C240.188 134.859 240.061 137.406 238.902 139.532C237.759 141.6 235.979 143.144 234.631 145.107C233.001 147.437 231.904 150.108 231.283 152.871C231.271 152.927 231.302 152.985 231.36 153C231.417 153.016 231.478 152.983 231.496 152.925C232.269 150.263 233.49 147.704 235.186 145.52C236.559 143.726 238.416 142.246 239.662 140.305C241.614 137.335 241.683 133.554 241.07 130.162C240.771 128.758 240.433 127.393 240.063 126.024C238.54 120.566 237.54 117.828 239.005 112.1C239.482 110.149 240.354 108.334 241.285 106.557C241.333 106.464 241.382 106.371 241.432 106.277C241.212 106.891 241.005 107.511 240.815 108.137C240.13 110.368 239.99 112.726 239.858 115.031C239.846 115.377 239.85 116.114 239.863 116.456C239.941 120.189 241.525 123.729 242.796 127.085C243.702 129.533 244.183 132.04 243.999 134.621C243.746 137.188 242.49 139.548 241.509 141.97C240.065 145.25 238.898 148.643 237.423 151.916C234.87 157.65 233.99 159.269 237.823 164.752C239.583 167.367 238.718 169.584 236.832 171.815C236.794 171.859 236.796 171.927 236.84 171.968C236.883 172.01 236.952 172.008 236.994 171.962C237.609 171.303 238.179 170.587 238.612 169.775C240.275 166.697 238.394 164.715 237.004 162.126C235.56 159.366 236.007 157.491 237.31 154.82C237.886 153.63 238.493 152.389 239.084 151.141C239.065 151.562 239.068 151.987 239.106 152.41C239.31 154.423 239.774 156.392 240.738 158.172C241.232 159.052 241.8 159.817 242.239 160.663C243.19 162.356 243.512 164.264 243.674 166.187C243.678 166.215 243.702 166.236 243.73 166.236C243.759 166.236 243.783 166.211 243.783 166.181C243.781 165.205 243.769 164.222 243.617 163.25C243.473 162.277 243.188 161.303 242.778 160.399C242.383 159.485 241.853 158.641 241.442 157.805C240.621 156.126 240.403 154.163 240.245 152.331C240.081 150.485 240.401 148.731 240.939 147.002C241.57 145.52 242.227 144.058 242.903 142.588C243.657 140.931 244.442 139.313 245.061 137.579C246.368 134.045 245.834 129.934 244.695 126.435C243.51 122.853 242.114 119.497 242.124 115.72C242.14 114.238 242.241 112.613 242.353 111.159C242.743 107.702 243.953 104.354 245.258 101.143C245.337 100.955 245.419 100.768 245.5 100.581C244.896 102.608 244.533 104.708 244.382 106.812C244.161 109.661 245.318 112.373 246.386 114.93C247.527 117.55 248.771 120.068 249.922 122.611C250.966 125.044 252.107 127.633 251.941 130.325C251.8 131.656 251.43 133.031 251.086 134.347C250.459 136.745 249.455 140.064 248.769 142.496C247.372 146.79 247.08 150.847 248.48 155.176C248.498 155.23 248.555 155.263 248.61 155.25C248.67 155.236 248.705 155.176 248.691 155.116C248.359 153.747 248.171 152.349 248.132 150.952C247.985 148.115 248.735 145.443 249.714 142.8C250.657 140.122 251.587 137.454 252.461 134.748C252.793 133.683 253.115 132.644 253.347 131.555C253.728 133.24 254.023 134.945 254.102 136.641C254.138 137.299 254.108 137.964 254.025 138.624C253.333 143.512 252.225 148.343 251.314 153.201C250.368 157.495 251.167 161.919 253.307 165.734C253.335 165.783 253.398 165.805 253.45 165.779C253.505 165.754 253.529 165.688 253.503 165.632C252.314 163.079 251.646 160.284 251.674 157.512C251.745 154.719 252.71 152.013 253.347 149.293C253.804 147.473 254.249 145.663 254.674 143.841C254.749 146.164 254.751 148.522 255.227 150.819C255.724 152.631 256.325 154.477 257.399 156.03C257.417 156.056 257.452 156.068 257.482 156.052C257.514 156.036 257.527 155.997 257.512 155.963C256.659 154.296 256.285 152.476 255.969 150.648C255.73 149.114 255.763 147.559 255.761 145.997C255.767 144.853 255.809 143.706 255.86 142.556C255.896 140.261 256.21 137.996 256.196 135.69C256.196 135.632 256.194 135.574 256.193 135.517C256.481 136.343 256.778 137.158 257.086 137.955C257.786 139.606 258.846 141.125 259.705 142.691C260.561 144.199 261.364 145.693 261.862 147.346C262.879 150.682 262.808 154.24 262.019 157.636C262.007 157.689 262.034 157.745 262.088 157.763C262.145 157.785 262.208 157.755 262.228 157.697C263.484 154.328 263.925 150.563 263.183 147.006C262.829 145.21 262.052 143.504 261.297 141.867C260.731 140.659 260.223 139.447 259.687 138.233C258.854 136.415 258.103 134.066 257.373 132.167C256.129 128.843 254.844 125.529 253.349 122.301C253.007 121.579 252.661 120.856 252.295 120.145C251.733 118.722 250.8 117.209 250.104 115.867C249.233 114.244 248.44 112.593 247.788 110.889C248.072 111.433 248.373 111.965 248.69 112.488C250.015 114.61 251.604 116.354 252.955 118.393C254.328 120.362 255.443 122.481 256.353 124.717C256.372 124.766 256.428 124.796 256.481 124.782C256.541 124.768 256.576 124.709 256.562 124.649C255.773 121.488 254.444 118.418 252.639 115.703C247.246 107.96 247.173 104.374 249.099 96.7049C248.885 98.8129 248.996 100.953 249.52 103.003C250.042 104.654 250.568 106.313 251.512 107.821C252.72 109.78 254.207 111.437 255.643 113.189C256.353 114.054 257.075 114.898 257.792 115.738C259.202 117.399 260.656 119.056 261.86 120.852C262.418 121.701 262.964 122.626 263.187 123.598C263.599 125.744 262.853 127.758 262.384 129.87C261.625 133.178 262.084 136.697 263.353 139.814C263.375 139.866 263.434 139.896 263.488 139.878C263.545 139.86 263.577 139.796 263.559 139.739C262.897 137.657 262.578 135.449 262.699 133.274C262.76 132.193 262.958 131.134 263.258 130.093C263.508 129.252 263.808 128.388 264.055 127.504C264.071 127.74 264.091 127.977 264.113 128.219C264.237 129.63 264.623 131.046 265.175 132.33C265.725 133.617 266.385 134.863 267.231 135.98C268.074 137.106 269.075 138.04 269.897 139.053C272.425 142.17 273.067 146.404 272.579 150.34C272.571 150.398 272.611 150.451 272.668 150.463C272.727 150.475 272.785 150.436 272.796 150.376C273.449 147.02 273.198 143.408 271.697 140.297C270.52 137.847 268.284 136.119 267.15 133.653C266.3 131.917 265.677 130.033 265.594 128.1C265.556 127.454 265.554 126.785 265.525 126.085C265.477 124.677 265.206 123.215 264.732 121.881C264.366 120.854 263.959 119.797 263.29 118.915C262.861 118.313 261.795 117.099 261.324 116.517C259.2 113.956 257.102 111.264 254.97 108.709C253.135 106.404 251.415 102.536 251.221 99.6016C251.219 99.399 251.215 99.1943 251.213 98.9897C251.256 99.1407 251.3 99.2937 251.345 99.4447C251.976 101.479 253.145 103.241 254.341 104.944C256.958 108.834 260.387 112.24 263.397 115.736C266.241 118.981 267.562 121.873 268.501 126.032C268.816 127.323 269.13 128.674 269.624 129.993C270.113 131.311 270.767 132.562 271.513 133.725C272.259 134.897 273.085 136.045 274.121 136.961C276.065 138.783 278.371 140.233 279.811 142.526C279.839 142.572 279.896 142.592 279.947 142.57C280.003 142.546 280.031 142.482 280.007 142.425C278.943 139.908 276.791 138.084 275.065 136.049C273.449 134.052 272.019 131.851 271.161 129.435C270.738 128.231 270.465 126.958 270.17 125.64C269.213 121.142 267.93 118.015 265.072 114.379C264.578 113.742 264.071 113.124 263.555 112.516C263.575 112.532 263.595 112.55 263.614 112.565C264.987 113.664 266.45 114.61 268.05 115.307C269.587 115.977 271.145 116.62 272.516 117.586C273.866 118.552 274.57 120.103 275.397 121.558C275.842 122.326 276.396 123.077 277.119 123.602C277.161 123.634 277.22 123.63 277.26 123.594C277.305 123.552 277.307 123.481 277.264 123.437C276.061 122.12 275.83 120.389 275.079 118.788C274.782 118.144 274.392 117.509 273.91 116.94C273.977 116.95 274.044 116.962 274.112 116.97C275.221 117.105 276.317 117.036 277.339 116.996C278.361 116.958 279.321 116.972 280.141 117.397C281.971 118.341 282.627 120.489 282.728 122.454C282.732 122.509 282.775 122.555 282.831 122.557C282.892 122.561 282.944 122.515 282.947 122.454C283.135 120.32 282.52 117.828 280.6 116.605C279.647 115.967 278.442 115.818 277.351 115.768C275.83 115.714 274.359 115.593 272.919 115.118C271.659 114.721 270.378 114.133 269.1 113.402C268.774 113.197 268.444 112.999 268.119 112.816C265.165 110.952 262.27 108.367 259.776 105.602C263.116 108.683 267.378 111.306 271.8 111.661C275.156 111.737 278.498 110.378 281.423 109.049C282.398 108.624 283.357 108.202 284.33 107.906C290.267 105.975 293.417 111.516 294.787 116.454C294.803 116.507 294.859 116.543 294.914 116.531C294.973 116.519 295.011 116.461 294.999 116.402C294.35 113.253 293.199 109.861 290.545 107.789C287.51 105.423 284.085 106.369 280.853 107.65C279.595 108.139 278.357 108.616 277.11 108.981C277.829 108.568 278.516 108.099 279.166 107.61C281.828 105.616 284.174 103.369 287.361 102.377C288.888 101.914 290.547 101.686 292.141 101.604C293.791 101.511 295.359 101.976 296.852 102.675C296.901 102.697 296.963 102.679 296.992 102.631C297.024 102.58 297.006 102.512 296.953 102.48C295.525 101.576 293.87 100.915 292.157 100.849C290.433 100.764 288.734 100.818 287.043 101.221C285.348 101.626 283.737 102.377 282.287 103.293C279.544 104.998 277.052 107.332 273.914 107.982C270.89 108.675 267.815 107.992 264.997 106.663C264.445 106.41 263.899 106.134 263.355 105.844C262.94 105.58 262.531 105.306 262.125 105.026C265.865 106.365 270.036 106.394 273.803 105.179C273.854 105.163 273.888 105.109 273.878 105.053C273.866 104.994 273.811 104.954 273.75 104.964C273.091 105.083 272.429 105.163 271.766 105.21C268.202 105.483 264.534 104.741 261.433 102.963C259.541 101.787 258.087 100.017 256.728 98.2725C256.726 98.2685 256.723 98.2645 256.721 98.2605C256.812 98.3658 256.902 98.4692 256.997 98.5725C259.881 101.775 264.52 104.143 268.849 104.31C273.241 104.386 277.616 102.707 280.869 99.7765C280.909 99.7407 280.916 99.6791 280.885 99.6314C280.849 99.5798 280.78 99.5698 280.731 99.6056C278.413 101.223 275.747 102.294 273.022 102.691C267.625 103.488 264.095 101.831 260.065 98.3698C257.808 96.5181 255.182 94.8949 253.984 92.1889C252.777 89.469 252.842 88.116 252.815 86.5047L252.805 86.5127ZM222.16 123.747C222.134 123.753 222.109 123.757 222.085 123.763C222.124 123.733 222.164 123.701 222.203 123.672C222.19 123.697 222.174 123.721 222.16 123.747ZM252.813 53.6254H260.264C269.933 53.6254 269.876 74.0218 260.264 74.0218H252.813V53.6254ZM252.107 93.0472H252.111C252.113 93.0591 252.115 93.0691 252.119 93.081C252.115 93.0691 252.111 93.0591 252.107 93.0472Z" fill="#FFC87B"/>
<path d="M53.9209 67.4751L53.9091 84.641C53.9091 90.7523 49.6632 93.6332 45.3401 93.6332C41.0171 93.6332 36.2748 90.5199 36.2748 84.641L36.2867 73.3421C36.2095 69.3447 35.7507 67.5506 33.876 67.5506V67.4731H42.0969V67.5506C40.2221 67.5506 39.7633 69.3447 39.6862 73.3421L39.6743 84.641C39.6743 89.5602 42.5458 92.0199 46.2182 92.0199C49.8906 92.0199 53.5234 89.5602 53.5234 84.641V77.417H53.4859C53.4859 70.5388 52.6553 68.3593 48.4489 67.5904V67.4751H53.919H53.9209Z" fill="#FFC87B"/>
<path d="M22.0621 73.6699H33.0971V73.8428C30.3107 73.8428 29.6284 75.158 29.5137 81.2137V84.5853C28.4913 90.2993 23.1438 93.6113 17.3989 93.6113C9.55179 93.6113 0.791016 87.4999 0.791016 72.9845C0.791016 59.2717 8.92489 52.2424 18.0812 52.2424C21.6072 52.2424 25.3034 53.3272 28.7147 55.3875L28.428 62.4168H28.3706C25.5842 56.3054 21.0911 53.1027 16.7661 53.1027C10.7403 53.1027 5.05274 59.4445 5.05274 72.9845C5.05274 87.5516 13.244 92.1808 19.329 92.1808C22.8551 92.1808 25.6415 90.5814 25.6415 88.5231V81.4363C25.5842 75.2097 24.8999 73.8348 22.0581 73.8348V73.662L22.0621 73.6699Z" fill="#FFC87B"/>
<path d="M58.2427 92.8245C60.4675 92.8245 61.0845 91.6284 61.1913 86.125V74.854C61.0865 69.3486 60.0305 67.5923 57.8057 67.5923V67.4771L63.9956 67.487V85.4495C64.045 91.5291 64.6679 92.8264 66.9442 92.8264V92.9834H58.2447V92.8264L58.2427 92.8245Z" fill="#FFC87B"/>
<path d="M64.9005 56.7008C65.1912 56.3054 65.6599 56.0889 66.0435 55.7928C66.2432 55.6339 66.5181 55.3319 66.4272 55.0637C66.4193 55.0438 66.4113 55.0279 66.4034 55.0061C66.3975 54.9941 66.3896 54.9842 66.3837 54.9703C66.3718 54.9564 66.3599 54.9365 66.3421 54.9206C66.3362 54.9186 66.3322 54.9107 66.3322 54.9107C66.176 54.7577 65.9347 54.7677 65.739 54.8054C65.5768 54.8312 65.3197 54.9008 65.2268 54.708C65.1457 54.5312 65.2465 54.3186 65.3355 54.1657C65.3672 54.1041 65.4028 54.0445 65.4344 53.9829L65.5847 53.7405C65.6757 53.5954 65.7825 53.3849 65.7231 53.2219C65.7093 53.1901 65.6935 53.1623 65.6678 53.1345C65.65 53.1127 65.6282 53.0988 65.6025 53.0809C65.5906 53.0769 65.5768 53.067 65.5669 53.063C65.4937 53.0272 65.4186 53.0213 65.3454 53.0292C65.2762 53.0352 65.201 53.063 65.1338 53.0968C65.1219 53.1027 65.1061 53.1087 65.0943 53.1146C64.8391 53.214 64.5979 53.3769 64.3803 53.5537C64.3665 53.5537 64.3546 53.5498 64.3467 53.5438C64.2953 53.514 64.2973 53.4306 64.2914 53.3789C64.2617 53.1981 64.1371 53.0749 63.9809 53.0213C63.9512 53.0093 63.9156 53.0014 63.88 52.9974C63.8741 52.9954 63.8642 52.9954 63.8602 52.9974C63.8246 52.9935 63.7871 52.9954 63.7515 53.0014C63.7416 53.0014 63.7337 53.0034 63.7258 53.0074C63.4548 53.057 63.267 53.2915 63.1285 53.516C63.0237 53.6769 62.9327 53.8418 62.7923 53.9749C62.6954 54.0643 62.5906 54.1339 62.4739 54.1855C62.3869 54.1398 62.3731 54.0405 62.3592 53.9511C62.3434 53.8478 62.3335 53.7445 62.292 53.6471C62.2109 53.4703 62.0507 53.3749 61.8767 53.3491C61.8411 53.3451 61.8055 53.3411 61.7719 53.3411C61.6849 53.3411 61.5959 53.3551 61.5128 53.3849C61.4713 53.3988 61.4258 53.4166 61.3882 53.4385C61.3526 53.4584 61.321 53.4822 61.2894 53.51C60.8859 53.8577 60.9116 54.4339 60.8721 54.9147C60.8543 55.1531 60.8246 55.465 60.617 55.618C60.5319 55.6776 60.4291 55.7034 60.3302 55.6657C60.2135 55.616 60.1305 55.5107 60.0138 55.4551C59.9209 55.4074 59.818 55.3995 59.7191 55.4173C59.6796 55.4253 59.646 55.4392 59.6143 55.4531C59.6064 55.4571 59.6025 55.4591 59.5985 55.461C59.5748 55.471 59.5471 55.4869 59.5214 55.5048C59.4917 55.5266 59.464 55.5485 59.4403 55.5743C59.2742 55.7471 59.2228 56.0094 59.2346 56.2458L59.2465 56.226C59.2702 56.7068 59.5214 57.124 59.6222 57.5869C59.6282 57.6127 59.6361 57.6425 59.64 57.6703C59.6499 57.7379 59.6559 57.8074 59.6578 57.879C59.6539 58.1849 59.5431 58.4969 59.2287 58.6041C59.0309 58.6697 58.8707 58.5425 58.6829 58.5267C58.6631 58.5267 58.6433 58.5247 58.6255 58.5267C58.5978 58.5286 58.5741 58.5286 58.5543 58.5386C58.4673 58.5565 58.3922 58.6081 58.3348 58.6757C58.3111 58.6995 58.2893 58.7293 58.2755 58.7591C58.2577 58.7849 58.2419 58.8167 58.232 58.8505C58.0362 59.3929 58.6414 59.7048 58.9657 60.0048C59.1773 60.1975 59.2702 60.4379 59.2208 60.724C59.1694 61.0201 58.9597 61.2565 58.8312 61.5188C58.7936 61.5982 58.7501 61.7452 58.76 61.8446C58.76 61.8645 58.758 61.8843 58.76 61.9022C58.764 61.9678 58.7719 62.0413 58.7996 62.1068C58.8015 62.1128 58.8055 62.1207 58.8094 62.1287C58.2221 62.828 58.2142 63.1042 58.1885 63.9148C58.1885 63.9764 58.2241 64.0301 58.2834 64.038C58.3427 64.044 58.4021 64.0022 58.404 63.9426C58.4238 63.0347 58.5227 62.8122 58.9479 62.3055C58.9637 62.3155 58.9775 62.3254 58.9953 62.3314C59.1496 62.389 59.3335 62.3015 59.4719 62.232C59.5451 62.2002 60.4054 61.6797 60.7811 61.6141C61.2004 61.5386 61.5979 61.628 62.0072 61.7115C62.3869 61.7929 62.7943 61.8446 63.1661 61.6936C63.4904 61.5644 63.7198 61.2803 63.7238 60.9227C63.7258 60.883 63.7238 60.8413 63.7159 60.8015C63.7159 60.7876 63.7119 60.7697 63.706 60.7578C63.702 60.726 63.6921 60.6922 63.6803 60.6624C63.6605 60.6028 63.6289 60.5452 63.5893 60.4936C63.4647 60.3346 63.2768 60.2909 63.091 60.2472C62.9842 60.2214 62.826 60.1777 62.7567 60.0823C62.7409 60.0565 62.7271 60.0227 62.7251 59.985C62.7231 59.9671 62.7251 59.9512 62.731 59.9293C62.7785 59.7167 63.0415 59.6551 63.2195 59.6134C64.0066 59.4227 65.0013 59.4267 65.4997 58.6618C65.6183 58.481 65.6697 58.2743 65.6519 58.0757C65.648 58.0339 65.6401 57.9942 65.6302 57.9545C65.6243 57.9425 65.6223 57.9346 65.6163 57.9227C65.6025 57.8909 65.5906 57.8611 65.5768 57.8293C65.5293 57.73 65.4562 57.6366 65.3533 57.5551C65.2228 57.4518 65.0765 57.3902 64.9242 57.3604C64.8589 57.3068 64.8075 57.2432 64.7778 57.1538V57.1498C64.7778 57.1498 64.7699 57.1379 64.768 57.1299C64.76 57.1001 64.7541 57.0743 64.7502 57.0425V57.0366C64.7877 56.9154 64.8451 56.8041 64.9143 56.7068L64.9005 56.7008Z" fill="#FFC87B"/>
<path d="M92.7813 88.3364H92.9375V92.9815H70.9229V92.8246C73.5194 92.8246 74.1444 91.5709 74.1958 85.8291V63.5989C74.1444 57.8591 73.5194 53.5418 70.9229 53.5418V53.4365H81.0027V53.5418C78.5109 53.5418 77.8346 57.7538 77.7297 62.8142V92.4034H83.0693C89.1464 92.4034 91.1181 91.6702 92.7813 88.3344V88.3384V88.3364Z" fill="#FFC87B"/>
<path d="M253.698 74.6397V74.6595H255.47C257.062 76.3741 263.317 83.2305 265.594 85.7458C269.402 89.9757 274.068 93.9751 278.616 93.9751C281.915 93.9751 283.734 92.4333 285.269 89.4611V89.3458C283.902 90.5459 282.425 91.0028 280.89 91.0028L280.886 90.9889C276.848 90.9889 272.527 87.4465 269.511 84.4206C269.511 84.4206 262.002 76.3066 260.072 74.4231C258.834 74.5801 257.588 74.6556 256.34 74.6496L253.698 74.6377V74.6397Z" fill="#FFC87B"/>
</g>
<defs>
<clipPath id="clip0_2076_3808">
<rect width="297" height="172" fill="white"/>
</clipPath>
</defs>
</svg>
