<svg xmlns="http://www.w3.org/2000/svg" width="605" height="58" fill="none" viewBox="0 0 605 58"><g fill="#bc8f51" filter="url(#a)"><path d="M552.113 35.417c-1.396 0-2.791-.482-3.981-1.44l-6.773-5.456 6.773-5.455c2.379-1.918 5.583-1.918 7.962 0l6.773 5.455-6.773 5.455c-1.189.959-2.585 1.44-3.981 1.44m-7.703-6.896 5.082 4.094c1.62 1.303 3.628 1.303 5.242 0l5.082-4.094-5.082-4.094c-1.62-1.303-3.628-1.303-5.242 0z"/><path d="M568.497 33.017a4.2 4.2 0 0 1-2.656-.959l-4.388-3.538 4.388-3.537c1.584-1.277 3.722-1.282 5.306 0l4.387 3.537-4.387 3.539a4.22 4.22 0 0 1-2.656.958zm-3.987-4.497 2.697 2.172c.813.651 1.779.651 2.591 0l2.697-2.172-2.697-2.171c-.812-.651-1.778-.651-2.591 0zM542.884 29.676H320.882c-.712 0-1.283-.52-1.283-1.155 0-.636.577-1.155 1.283-1.155h222.002c.713 0 1.284.52 1.284 1.155 0 .636-.577 1.155-1.284 1.155"/><path d="m573.066 29.575 21.608-1.165-21.608-.943zM52.561 35.417c-1.395 0-2.791-.482-3.98-1.44l-6.773-5.456 6.772-5.455c2.38-1.918 5.583-1.918 7.963 0l6.772 5.455-6.772 5.455c-1.19.959-2.586 1.44-3.982 1.44m-7.697-6.896 5.083 4.094c1.62 1.303 3.627 1.303 5.241 0l5.082-4.094-5.082-4.094c-1.62-1.303-3.628-1.303-5.241 0z"/><path d="M36.178 33.017c-.93 0-1.86-.317-2.656-.958l-4.387-3.538 4.387-3.538c1.584-1.277 3.722-1.277 5.307 0l4.387 3.538-4.388 3.538a4.2 4.2 0 0 1-2.656.958zm-3.993-4.496 2.698 2.171c.812.652 1.778.652 2.591 0l2.697-2.171-2.697-2.172c-.813-.651-1.779-.651-2.591 0zM283.792 29.676H61.791c-.713 0-1.284-.52-1.284-1.155 0-.636.577-1.155 1.284-1.155h222.001c.713 0 1.284.52 1.284 1.155 0 .636-.577 1.155-1.284 1.155"/><path d="M31.608 29.575 10 28.41l21.608-.943zM314.004 24.969l-9.487 3.553 9.487 3.554 9.488-3.554zm-5.801 3.553 5.801-2.171 5.801 2.171-5.801 2.172z"/><path d="m314.003 32.51-10.653-3.988 10.653-3.988 10.654 3.988zm-8.321-3.988 8.327 3.12 8.328-3.12-8.328-3.12zm8.321 2.606-6.967-2.611 6.967-2.611 6.967 2.61zm-4.64-2.606 4.64 1.737 4.641-1.737-4.641-1.737zM290.671 24.969l-9.487 3.553 9.487 3.554 9.488-3.554zm-5.801 3.553 5.801-2.171 5.801 2.171-5.801 2.172z"/><path d="m290.67 32.51-10.653-3.988 10.653-3.988 10.654 3.988zm-8.327-3.988 8.327 3.12 8.328-3.12-8.328-3.12zm8.327 2.606-6.967-2.611 6.967-2.611 6.967 2.61zm-4.64-2.606 4.64 1.737 4.641-1.737-4.641-1.737zM306.608 38.225l-4.27-7.892-4.27 7.892 4.27 7.891zm-4.27-4.825 2.615 4.825-2.615 4.825-2.615-4.825z"/><path d="m302.339 47.038-4.771-8.814 4.771-8.813 4.77 8.813zm-3.775-8.814 3.775 6.976 3.775-6.976-3.775-6.975zm3.775 5.752-3.11-5.746 3.11-5.747 3.109 5.747zm-2.115-5.752 2.115 3.91 2.114-3.91-2.114-3.908zM306.608 18.814l-4.27-7.892-4.27 7.892 4.27 7.891zm-4.27-4.825 2.615 4.825-2.615 4.825-2.615-4.825z"/><path d="m302.339 27.627-4.771-8.814L302.339 10l4.77 8.813zm-3.775-8.814 3.775 6.976 3.775-6.976-3.775-6.975zm3.775 5.747-3.11-5.747 3.11-5.746 3.109 5.746zm-2.115-5.747 2.115 3.909 2.114-3.909-2.114-3.908z"/></g><defs><filter id="a" width="604.674" height="57.038" x="0" y="0" color-interpolation-filters="sRGB" filterUnits="userSpaceOnUse"><feFlood flood-opacity="0" result="BackgroundImageFix"/><feColorMatrix in="SourceAlpha" result="hardAlpha" values="0 0 0 0 0 0 0 0 0 0 0 0 0 0 0 0 0 0 127 0"/><feOffset/><feGaussianBlur stdDeviation="5"/><feComposite in2="hardAlpha" operator="out"/><feColorMatrix values="0 0 0 0 1 0 0 0 0 0.784314 0 0 0 0 0.482353 0 0 0 1 0"/><feBlend in2="BackgroundImageFix" result="effect1_dropShadow_2023_2846"/><feBlend in="SourceGraphic" in2="effect1_dropShadow_2023_2846" result="shape"/></filter></defs></svg>