<svg xmlns="http://www.w3.org/2000/svg" width="303" height="54" fill="none" viewBox="0 0 303 54"><g fill="#ffc87b" filter="url(#a)"><path d="m275.517 22.285 2.077-2.077-2.077-2.077-2.077 2.077z"/><path d="M183.084 20.606h91.086v-.795h-91.086zM293 20.213s-5.136-.311-7.158 4.358v-4.362z"/><path d="M293 20.205s-5.136.311-7.158-4.358v4.362zM276.814 20.213s6.475-.311 9.026 4.358v-4.362z"/><path d="M276.814 20.205s6.475.311 9.026-4.358v4.362zM156.242 16.739c-.062.533-.257 1.088-.61 1.461-.321.342-.697.527-1.158.643a2.5 2.5 0 0 1-.645.096 4 4 0 0 1-.289-.004c-.019-.001-.163-.017-.117-.01.042.006-.084-.017-.111-.022a2 2 0 0 1-.27-.074c-.032-.01-.148-.056-.058-.018a2.514 2.514 0 0 1-.359-.198c-.03-.02-.099-.071-.03-.018a2.098 2.098 0 0 1-.389-.39c-.036-.044.01.012.014.018l-.061-.086a3.5 3.5 0 0 1-.271-.487l-.027-.06c.036.084.006.011 0-.004l-.046-.127a4 4 0 0 1-.093-.306 4 4 0 0 1-.069-.297l-.025-.14-.012-.07c-.024-.153.005.052-.005-.037-.11-.933-.013-1.731.277-2.609.14-.42.293-.755.547-1.162a3.986 3.986 0 0 1 .875-.993c.989-.798 2.309-.916 3.531-.819 1.241.1 2.511.366 3.672.817 1.242.482 2.395 1.218 3.387 2.104 2.168 1.934 3.392 4.553 4.776 7.05.675 1.22 1.398 2.422 2.307 3.486a9.6 9.6 0 0 0 3.572 2.61c2.107.893 4.62 1.174 6.675-.03 2.374-1.39 3.061-4.343 2.482-6.89-.312-1.378-1.013-2.69-2.084-3.627-1.023-.895-2.336-1.453-3.702-1.494-.729-.023-1.48.145-2.072.587a3.13 3.13 0 0 0-1.137 1.753c-.339 1.352.233 2.731 1.551 3.262a3.4 3.4 0 0 0 1.562.208c.267-.025.497-.211.497-.497 0-.25-.228-.523-.497-.498-.978.09-2.018-.266-2.2-1.375-.095-.582.093-1.227.444-1.694.383-.509 1-.735 1.62-.752 1.225-.034 2.453.48 3.347 1.306 1 .925 1.575 2.182 1.798 3.513.211 1.262.064 2.635-.57 3.761a4.28 4.28 0 0 1-2.215 1.904c-.942.35-1.984.428-2.941.288-1.301-.19-2.581-.717-3.67-1.448-2.303-1.543-3.546-4.203-4.824-6.567-.669-1.236-1.354-2.474-2.209-3.593a13.8 13.8 0 0 0-3.142-3.018 11.8 11.8 0 0 0-3.606-1.675c-1.218-.326-2.535-.555-3.797-.512-1.325.046-2.624.467-3.572 1.425-.665.671-1.123 1.531-1.4 2.428-.509 1.645-.508 3.783.693 5.14 1.324 1.497 3.958 1.088 5.055-.468.372-.528.529-1.16.602-1.793.032-.266-.251-.497-.497-.497-.295 0-.466.23-.498.498z"/><path d="M144.905 16.739c.142 1.216.704 2.329 1.871 2.84.905.398 1.967.497 2.885.088 1.625-.723 2.04-2.815 1.873-4.408-.22-2.094-1.311-4.123-3.358-4.906-1.237-.472-2.613-.394-3.898-.197-1.287.196-2.531.518-3.714 1.07-2.6 1.215-4.563 3.335-6.017 5.769-1.402 2.345-2.451 4.993-4.308 7.036-1.67 1.838-4.258 3.042-6.728 2.824-.932-.081-1.941-.43-2.67-1.052-.886-.757-1.402-1.84-1.564-2.989-.363-2.565.887-5.51 3.425-6.455 1.072-.399 2.631-.596 3.391.473.65.917.611 2.31-.44 2.84-.401.202-.863.24-1.339.195-.268-.025-.497.247-.497.498 0 .289.228.472.497.497 1.136.105 2.396-.34 2.924-1.417.635-1.296.174-2.986-.983-3.83-1.139-.831-2.785-.646-4.019-.135a6.26 6.26 0 0 0-3.087 2.78c-1.292 2.37-1.327 5.643.493 7.754 1.486 1.723 3.95 2.138 6.088 1.687a9.9 9.9 0 0 0 3.897-1.772c1.138-.862 2.031-1.97 2.8-3.165 1.526-2.373 2.56-5.08 4.351-7.278 1.726-2.12 4.046-3.636 6.735-4.183 1.193-.243 2.465-.451 3.675-.198.605.127 1.197.367 1.676.767.378.315.62.609.858.99.259.417.409.75.55 1.19a6.2 6.2 0 0 1 .27 1.26c.042.44.044.886-.013 1.324.012-.09-.009.058-.013.082l-.025.14a6 6 0 0 1-.074.319q-.04.143-.087.283l-.046.127c-.033.09-.008.023 0 .004l-.036.08a4 4 0 0 1-.286.501c-.05.077-.008.015-.023.033q-.044.055-.093.111a2.2 2.2 0 0 1-.298.28c.068-.053 0-.002-.031.018a2.6 2.6 0 0 1-.359.198c.099-.042-.033.01-.058.019a3 3 0 0 1-.292.079c-.02.004-.138.023-.089.017.041-.005-.087.008-.117.01a2.9 2.9 0 0 1-.963-.097c-.468-.122-.846-.317-1.17-.677-.326-.363-.512-.91-.571-1.419-.032-.267-.206-.497-.497-.497-.244 0-.529.228-.498.497z"/><path d="M150.674 43.976c-.193-2.213-.386-4.3-.558-6.141-1.008-10.837-1.514-16.276.636-19.136l.318-.424.318.424c2.15 2.86 1.644 8.299.635 19.134-.171 1.842-.365 3.928-.558 6.142"/><path d="m151.071 39.51.162-1.75c.903-9.698 1.424-15.293-.162-18.096-1.585 2.803-1.064 8.398-.162 18.097.053.56.107 1.145.162 1.747zM27.484 22.697l2.076-2.077-2.076-2.077-2.078 2.077z"/><path d="M28.83 21.017h91.086v-.795H28.83zM10 20.616s5.136.312 7.158-4.358v4.362z"/><path d="M10 20.624s5.136-.311 7.158 4.358V20.62zM26.186 20.616s-6.475.312-9.026-4.358v4.362z"/><path d="M26.186 20.624s-6.475-.311-9.026 4.358V20.62z"/></g><defs><filter id="a" width="303" height="53.976" x="0" y="0" color-interpolation-filters="sRGB" filterUnits="userSpaceOnUse"><feFlood flood-opacity="0" result="BackgroundImageFix"/><feColorMatrix in="SourceAlpha" result="hardAlpha" values="0 0 0 0 0 0 0 0 0 0 0 0 0 0 0 0 0 0 127 0"/><feOffset/><feGaussianBlur stdDeviation="5"/><feComposite in2="hardAlpha" operator="out"/><feColorMatrix values="0 0 0 0 1 0 0 0 0 0.784314 0 0 0 0 0.482353 0 0 0 1 0"/><feBlend in2="BackgroundImageFix" result="effect1_dropShadow_2124_1638"/><feBlend in="SourceGraphic" in2="effect1_dropShadow_2124_1638" result="shape"/></filter></defs></svg>