<svg xmlns="http://www.w3.org/2000/svg" width="34" height="40" fill="none" viewBox="0 0 34 40"><path fill="#bc8f51" d="M16.436 12.439c-2.691-.772-2.347-3.96.353-4.475-.946-.832-2.004-1.577-2.597-2.726-.103-.206-.507-1.175-.456-1.329.12-.411 1.29.043 1.59-.343.121-.154.156-1.174.31-1.611C15.732 1.68 16.677-.01 16.85 0c.318.514.86 1.072 1.1 1.612.19.428.319 1.706.422 1.843.507.643 2.21-.746 1.238 1.329-.593 1.277-1.6 2.126-2.476 3.18 1.341.703 2.244 1.569 1.608 3.189-.447 1.132-.92.772-1.6 1.226-.473.317.164 1.226.284 1.74.662 2.803.163 5.718.972 8.753 1.17 4.406 4.609 6.558 1.737 11.359-.602 1.003-1.41 1.937-1.995 2.983-.499.9-.869 1.852-1.281 2.786-.396-.883-.74-1.783-1.213-2.632-1.685-3.017-4.488-4.595-3.01-8.59.465-1.251 1.368-2.408 1.918-3.626 1.479-3.24 1.17-5.675 1.333-9.07.06-1.243.318-2.443.559-3.652z"/><path fill="#bc8f51" d="M18.594 12.508c.212-.051.212.076.314.187 2.139 2.349 6.272 4.646 8.979 1.778 1.544-1.633.78-4.731-1.689-4.272-1.579.29-.424.817-.433 1.685 0 1.064-1.222 1.805-2.198 1.745-1.977-.12-3.106-2.28-2.945-4.085.23-2.578 3.09-4.595 5.525-4.782 7.435-.596 10.651 8.901 4.922 13.582-4.829 3.94-12.51.383-12.475-5.83zM15.406 13.194c-.54 4.906-4.955 7.832-9.936 6.473-6.681-1.815-7.566-11.446-.85-13.99 4.311-1.633 10.812 1.782 8.622 6.464-.773 1.65-3.478 2.363-4.354.622-.55-1.094.953-2.022-.584-2.27-3.246-.531-3.641 4.267-.343 5.254 2.877.862 5.298-.995 7.445-2.545zM15.398 18.421c-.034 2.775-1.305 5.567-3.177 7.607-1.363 1.488-3.87 3.352-5.87 1.822a2.636 2.636 0 0 1-.5-3.695c1.043-1.387 2.39-.735 3.897-.894 1.305-.134 2.71-1.037 3.592-1.973.813-.86 1.346-1.939 2.066-2.867z"/><path fill="#bc8f51" d="M18.594 17.903c.203-.044.28.096.382.236.356.463.688 1.31 1.087 1.878 1.044 1.45 2.87 2.952 4.66 3.153 1.138.13 2.31-.27 3.235.646 1.35 1.354.748 4.167-1.163 4.542-3.133.603-5.943-3.258-7.021-5.852-.628-1.511-.85-3.013-1.18-4.603"/></svg>