<svg xmlns="http://www.w3.org/2000/svg" width="76" height="64" fill="none" viewBox="0 0 76 64"><path fill="#bc8f51" d="M23.634 33.061c-1.466 5.066-7.525 4.419-8.502-.663-1.58 1.78-2.997 3.771-5.18 4.888-.39.194-2.231.955-2.525.858-.781-.227.082-2.428-.651-2.995-.293-.226-2.232-.291-3.062-.582-.521-.178-3.73-1.959-3.714-2.283.977-.598 2.036-1.618 3.062-2.071.815-.356 3.242-.6 3.502-.794 1.222-.954-1.417-4.16 2.525-2.33 2.427 1.117 4.04 3.01 6.043 4.661 1.335-2.525 2.98-4.224 6.059-3.026 2.15.841 1.466 1.731 2.329 3.01.603.89 2.33-.307 3.306-.534 5.327-1.246 10.865-.308 16.63-1.829 8.373-2.201 12.46-8.676 21.582-3.27 1.906 1.134 3.681 2.655 5.668 3.756 1.71.938 3.519 1.634 5.294 2.411-1.678.745-3.388 1.392-5 2.282-5.734 3.173-8.73 8.45-16.321 5.665-2.378-.874-4.577-2.573-6.89-3.609-6.157-2.784-10.782-2.201-17.233-2.509-2.361-.113-4.642-.599-6.938-1.052z"/><path fill="#bc8f51" d="M23.765 29c-.097-.4.145-.4.355-.591 4.463-4.026 8.829-11.806 3.38-16.902-3.105-2.907-8.99-1.47-8.117 3.18.55 2.97 1.552.798 3.201.814 2.021 0 3.428 2.3 3.315 4.137-.226 3.723-4.333 5.847-7.761 5.544-4.9-.432-8.731-5.815-9.087-10.4C7.919.788 25.964-5.267 34.857 5.516c7.486 9.09.727 23.548-11.076 23.484zM25.069 35c9.322 1.018 14.88 9.328 12.298 18.704-3.449 12.576-21.747 14.241-26.58 1.6-3.103-8.115 3.385-20.352 12.282-16.23 3.133 1.455 4.488 6.547 1.18 8.196-2.078 1.034-3.841-1.795-4.314 1.099-1.008 6.11 8.11 6.854 9.984.647C31.556 43.6 28.029 39.04 25.084 35zM35 35.016c5.273.064 10.577 2.455 14.452 5.979 2.827 2.567 6.369 7.286 3.463 11.05-1.684 2.183-4.813 2.598-7.02.94-2.637-1.961-1.398-4.496-1.7-7.334-.254-2.456-1.969-5.103-3.748-6.76C38.812 37.36 36.763 36.354 35 35z"/><path fill="#bc8f51" d="M34.016 29c-.084-.384.182-.527.448-.72.88-.67 2.489-1.294 3.568-2.045 2.755-1.965 5.609-5.401 5.99-8.774.25-2.141-.514-4.346 1.229-6.088 2.572-2.542 7.916-1.407 8.63 2.189 1.145 5.897-6.19 11.187-11.12 13.217-2.87 1.182-5.725 1.598-8.745 2.221"/></svg>