<svg xmlns="http://www.w3.org/2000/svg" width="381" height="576" fill="none" viewBox="0 0 381 576"><g filter="url(#a)"><path fill="#efe6d9" d="M151.113 223.505c-25.027-2.38-50.033-4.739-76.08-7.26 10.07-12.69 19.375-24.546 28.66-36.341l-.85-.814a11856 11856 0 0 0-36.798 27.292c-2.72-28.024-5.354-55.172-7.988-82.382h-1.318c-2.719 27.149-5.502 54.196-8.37 82.524-12.705-9.416-24.645-18.323-36.65-27.21-.318.305-.616.529-.934.814 9.305 11.632 18.59 23.284 28.66 36.117-25.495 2.521-49.97 4.819-74.445 7.26v1.118c24.475 2.44 48.95 4.82 74.53 7.423C29.375 245.02 19.92 257.1 10.402 269.2l.701.671c12.09-8.684 24.178-17.428 37.266-26.844 2.783 26.762 5.502 52.711 8.222 78.681h1.317l7.988-79.128c12.854 9.273 24.943 17.936 36.947 26.62l.765-.732c-9.306-11.856-18.505-23.733-28.576-36.565 26.026-2.44 50.969-4.819 75.996-7.199v-1.118z"/></g><g filter="url(#b)"><path fill="#efe6d9" d="M257 325.349c-16.233-1.542-32.453-3.072-49.348-4.706 6.532-8.226 12.568-15.911 18.59-23.557l-.551-.527a7711 7711 0 0 0-23.868 17.69c-1.764-18.165-3.473-35.763-5.182-53.401h-.854c-1.764 17.598-3.569 35.131-5.43 53.494-8.241-6.104-15.985-11.878-23.771-17.638-.207.197-.4.342-.607.527a3123 3123 0 0 1 18.59 23.412c-16.536 1.634-32.412 3.124-48.287 4.706v.725c15.875 1.582 31.751 3.124 48.343 4.812-6.588 8.41-12.72 16.24-18.894 24.084l.455.435c7.841-5.629 15.682-11.298 24.171-17.401 1.805 17.348 3.569 34.169 5.333 51.003h.855c1.709-16.913 3.417-33.84 5.181-51.293 8.337 6.011 16.179 11.627 23.965 17.256l.496-.475c-6.036-7.685-12.003-15.384-18.535-23.702 16.881-1.582 33.059-3.124 49.293-4.666v-.725z"/></g><g filter="url(#c)"><path fill="#efe6d9" d="M143.115 411c-10.414-.993-20.819-1.978-31.657-3.031 4.19-5.298 8.062-10.248 11.925-15.172l-.353-.34a5011 5011 0 0 0-15.312 11.394c-1.131-11.699-2.228-23.034-3.324-34.394h-.548c-1.131 11.335-2.29 22.627-3.483 34.454-5.287-3.931-10.255-7.65-15.25-11.36-.132.127-.256.22-.389.339 3.872 4.857 7.736 9.722 11.926 15.079-10.608 1.053-20.793 2.012-30.977 3.031v.467c10.185 1.019 20.369 2.012 31.012 3.099-4.225 5.417-8.16 10.46-12.12 15.512l.292.28c5.03-3.625 10.06-7.276 15.506-11.207 1.158 11.173 2.29 22.007 3.421 32.849h.548l3.324-33.036c5.349 3.872 10.379 7.489 15.374 11.114l.318-.306c-3.872-4.95-7.7-9.908-11.89-15.265 10.829-1.019 21.208-2.013 31.622-3.006v-.467z"/></g><defs><filter id="a" width="434.113" height="445.708" x="-159" y="0" color-interpolation-filters="sRGB" filterUnits="userSpaceOnUse"><feFlood flood-opacity="0" result="BackgroundImageFix"/><feColorMatrix in="SourceAlpha" result="hardAlpha" values="0 0 0 0 0 0 0 0 0 0 0 0 0 0 0 0 0 0 127 0"/><feOffset/><feGaussianBlur stdDeviation="62"/><feComposite in2="hardAlpha" operator="out"/><feColorMatrix values="0 0 0 0 0.937255 0 0 0 0 0.901961 0 0 0 0 0.85098 0 0 0 0.5 0"/><feBlend in2="BackgroundImageFix" result="effect1_dropShadow_2073_1562"/><feBlend in="SourceGraphic" in2="effect1_dropShadow_2073_1562" result="shape"/></filter><filter id="b" width="368.718" height="376.159" x="12.282" y="136.848" color-interpolation-filters="sRGB" filterUnits="userSpaceOnUse"><feFlood flood-opacity="0" result="BackgroundImageFix"/><feColorMatrix in="SourceAlpha" result="hardAlpha" values="0 0 0 0 0 0 0 0 0 0 0 0 0 0 0 0 0 0 127 0"/><feOffset/><feGaussianBlur stdDeviation="62"/><feComposite in2="hardAlpha" operator="out"/><feColorMatrix values="0 0 0 0 0.937255 0 0 0 0 0.901961 0 0 0 0 0.85098 0 0 0 0.5 0"/><feBlend in2="BackgroundImageFix" result="effect1_dropShadow_2073_1562"/><feBlend in="SourceGraphic" in2="effect1_dropShadow_2073_1562" result="shape"/></filter><filter id="c" width="325.442" height="330.543" x="-58.327" y="245.457" color-interpolation-filters="sRGB" filterUnits="userSpaceOnUse"><feFlood flood-opacity="0" result="BackgroundImageFix"/><feColorMatrix in="SourceAlpha" result="hardAlpha" values="0 0 0 0 0 0 0 0 0 0 0 0 0 0 0 0 0 0 127 0"/><feOffset/><feGaussianBlur stdDeviation="62"/><feComposite in2="hardAlpha" operator="out"/><feColorMatrix values="0 0 0 0 0.937255 0 0 0 0 0.901961 0 0 0 0 0.85098 0 0 0 0.5 0"/><feBlend in2="BackgroundImageFix" result="effect1_dropShadow_2073_1562"/><feBlend in="SourceGraphic" in2="effect1_dropShadow_2073_1562" result="shape"/></filter></defs></svg>