<svg xmlns="http://www.w3.org/2000/svg" width="64" height="86" fill="none" viewBox="0 0 64 86"><path fill="#efe6d9" d="M36.078 26.09c-6.6-.624-13.194-1.243-20.063-1.904 2.656-3.327 5.11-6.436 7.558-9.528l-.224-.214a3145 3145 0 0 0-9.703 7.156c-.718-7.348-1.412-14.466-2.107-21.6h-.347c-.717 7.118-1.451 14.21-2.208 21.637-3.35-2.468-6.499-4.804-9.664-7.134-.084.08-.163.139-.247.213 2.454 3.05 4.903 6.106 7.558 9.47C-.092 24.847-6.546 25.45-13 26.09v.293c6.454.64 12.908 1.264 19.654 1.946-2.678 3.402-5.172 6.57-7.681 9.742l.184.176c3.188-2.277 6.376-4.57 9.827-7.039.734 7.017 1.451 13.82 2.168 20.63h.348l2.106-20.747c3.39 2.431 6.578 4.703 9.743 6.98l.202-.192c-2.454-3.109-4.88-6.223-7.536-9.587 6.863-.64 13.44-1.264 20.04-1.888v-.293zM64 52.793c-4.28-.405-8.558-.806-13.013-1.234 1.722-2.157 3.314-4.172 4.902-6.177l-.145-.138c-2.042 1.5-4.081 3-6.294 4.638-.465-4.762-.916-9.377-1.366-14.001h-.226c-.465 4.614-.94 9.21-1.431 14.026-2.174-1.6-4.216-3.115-6.269-4.625-.055.052-.105.09-.16.138A822 822 0 0 1 44.9 51.56c-4.36.428-8.547.819-12.733 1.234v.19c4.186.415 8.372.819 12.748 1.261-1.737 2.206-3.354 4.259-4.982 6.315l.12.114c2.067-1.476 4.135-2.962 6.374-4.562.476 4.548.94 8.959 1.406 13.372h.225l1.367-13.448c2.198 1.576 4.266 3.048 6.319 4.524l.13-.124c-1.591-2.015-3.165-4.034-4.887-6.215 4.452-.415 8.718-.819 12.999-1.223v-.19zM33.969 75.25c-2.747-.26-5.49-.519-8.348-.795 1.105-1.389 2.126-2.687 3.144-3.978l-.093-.089c-1.31.966-2.618 1.932-4.038 2.988l-.876-9.018h-.145c-.298 2.971-.603 5.932-.918 9.033-1.394-1.03-2.704-2.006-4.021-2.978-.035.033-.068.058-.103.089a529 529 0 0 1 3.145 3.953c-2.798.276-5.483.528-8.169.795v.123c2.686.267 5.371.527 8.178.812-1.114 1.42-2.152 2.743-3.196 4.067l.077.074c1.326-.95 2.653-1.908 4.089-2.939.305 2.93.604 5.77.902 8.613h.145l.876-8.662c1.41 1.015 2.737 1.964 4.054 2.914l.084-.08c-1.021-1.298-2.03-2.598-3.135-4.003 2.855-.267 5.592-.527 8.338-.788v-.122z"/></svg>