<svg xmlns="http://www.w3.org/2000/svg" width="167" height="186" fill="none" viewBox="0 0 167 186"><path fill="#efe6d9" d="M105.918 129.127c-14.243 1.345-28.475 2.678-43.298 4.103 5.73 7.171 11.027 13.871 16.31 20.537l-.483.46a6917 6917 0 0 1-20.942-15.423 210662 210662 0 0 0-4.546 46.556h-.75c-1.547-15.343-3.131-30.628-4.764-46.636-7.23 5.32-14.025 10.354-20.857 15.376-.181-.172-.35-.298-.532-.459a2734 2734 0 0 0 16.311-20.411c-14.51-1.425-28.438-2.723-42.367-4.103v-.632c13.929-1.379 27.858-2.723 42.416-4.194-5.78-7.332-11.16-14.159-16.577-20.997l.399-.379c6.88 4.907 13.76 9.849 21.207 15.17 1.584-15.124 3.132-29.788 4.68-44.464h.75c1.499 14.745 2.998 29.501 4.546 44.717 7.315-5.241 14.194-10.137 21.026-15.044l.435.414c-5.296 6.7-10.531 13.411-16.262 20.663 14.811 1.379 29.006 2.724 43.25 4.068v.632zM166.179 71.573c-9.239.872-18.47 1.736-28.085 2.66 3.718 4.648 7.153 8.991 10.58 13.312l-.314.298a4456 4456 0 0 1-13.583-9.998c-1.004 10.266-1.976 20.211-2.949 30.179h-.486c-1.004-9.945-2.031-19.853-3.09-30.23-4.69 3.449-9.098 6.712-13.529 9.967-.117-.112-.227-.194-.345-.298 3.435-4.261 6.863-8.53 10.58-13.23-9.411-.924-18.446-1.766-27.48-2.66v-.41c9.034-.894 18.069-1.765 27.511-2.719a6686 6686 0 0 0-10.752-13.61l.259-.246c4.462 3.18 8.925 6.384 13.756 9.833 1.027-9.804 2.031-19.31 3.035-28.822h.486l2.949 28.986c4.745-3.397 9.207-6.57 13.638-9.751l.283.268c-3.435 4.343-6.831 8.694-10.549 13.394 9.607.894 18.815 1.766 28.053 2.637v.41zM101.366 23.17c-5.926.561-11.848 1.118-18.016 1.713 2.385 2.994 4.588 5.791 6.787 8.574l-.201.192a2821 2821 0 0 1-8.714-6.44L79.33 46.648h-.312c-.644-6.406-1.303-12.787-1.982-19.47-3.009 2.22-5.836 4.322-8.679 6.42-.075-.073-.146-.126-.221-.193 2.204-2.744 4.402-5.494 6.787-8.521-6.037-.595-11.833-1.137-17.63-1.713v-.264c5.797-.576 11.593-1.137 17.65-1.751a4617 4617 0 0 0-6.898-8.766l.166-.159c2.863 2.049 5.726 4.112 8.825 6.334.659-6.315 1.303-12.437 1.947-18.564h.312l1.892 18.67c3.043-2.189 5.906-4.233 8.749-6.281l.18.172c-2.203 2.798-4.381 5.6-6.766 8.627 6.163.576 12.07 1.137 17.996 1.699v.264z"/></svg>