<svg width="254" height="423" viewBox="0 0 254 423" fill="none" xmlns="http://www.w3.org/2000/svg">
<g filter="url(#filter0_d_2073_1634)">
<path d="M223.43 177.089C210.06 175.82 196.7 174.561 182.784 173.216C188.164 166.446 193.136 160.12 198.096 153.827L197.642 153.393C191.263 158.102 184.895 162.811 177.983 167.954C176.53 153.002 175.123 138.518 173.715 124H173.011C171.559 138.485 170.072 152.916 168.539 168.03C161.752 163.006 155.373 158.254 148.96 153.512C148.79 153.675 148.631 153.794 148.46 153.946C153.432 160.153 158.392 166.37 163.772 173.216C150.152 174.561 137.076 175.787 124 177.089V177.686C137.076 178.988 150.152 180.258 163.818 181.647C158.392 188.569 153.341 195.014 148.256 201.47C148.381 201.589 148.506 201.708 148.631 201.828C155.089 197.195 161.547 192.529 168.539 187.506C170.026 201.784 171.479 215.629 172.932 229.484H173.636C175.043 215.564 176.451 201.632 177.904 187.267C184.771 192.214 191.229 196.837 197.642 201.47C197.812 201.307 197.937 201.187 198.051 201.079C193.079 194.753 188.164 188.417 182.784 181.571C196.689 180.269 210.014 178.999 223.385 177.73V177.133L223.43 177.089Z" fill="#EFE6D9"/>
</g>
<g filter="url(#filter1_d_2073_1634)">
<path d="M280 231.427C271.327 230.604 262.662 229.788 253.636 228.916C257.126 224.527 260.35 220.427 263.567 216.348L263.273 216.066C259.135 219.119 255.005 222.171 250.522 225.505C249.579 215.813 248.666 206.424 247.753 197.013H247.297C246.355 206.403 245.39 215.757 244.396 225.554C239.994 222.298 235.856 219.217 231.696 216.144C231.586 216.249 231.483 216.327 231.372 216.425C234.597 220.448 237.814 224.478 241.304 228.916C232.469 229.788 223.988 230.583 215.507 231.427V231.814C223.988 232.658 232.469 233.481 241.334 234.381C237.814 238.868 234.538 243.046 231.24 247.231C231.321 247.308 231.402 247.385 231.483 247.463C235.672 244.46 239.861 241.435 244.396 238.179C245.361 247.435 246.303 256.409 247.245 265.391H247.702C248.615 256.367 249.528 247.336 250.47 238.024C254.924 241.231 259.113 244.228 263.273 247.231C263.383 247.125 263.464 247.048 263.538 246.978C260.313 242.877 257.126 238.77 253.636 234.332C262.655 233.488 271.298 232.665 279.971 231.842V231.455L280 231.427Z" fill="#EFE6D9"/>
</g>
<g filter="url(#filter2_d_2073_1634)">
<path d="M219.157 277.125C213.594 276.595 208.035 276.07 202.244 275.508C204.483 272.681 206.552 270.04 208.616 267.413L208.427 267.232C205.772 269.198 203.123 271.164 200.246 273.311C199.642 267.069 199.056 261.021 198.471 254.96H198.178C197.573 261.008 196.955 267.032 196.317 273.343C193.493 271.245 190.838 269.261 188.17 267.282C188.099 267.35 188.033 267.399 187.962 267.463C190.031 270.054 192.095 272.65 194.333 275.508C188.666 276.07 183.225 276.582 177.784 277.125V277.374C183.225 277.918 188.666 278.448 194.352 279.028C192.095 281.918 189.993 284.608 187.877 287.304C187.929 287.354 187.981 287.403 188.033 287.453C190.72 285.519 193.408 283.571 196.317 281.474C196.936 287.435 197.54 293.215 198.145 299H198.438C199.023 293.188 199.609 287.372 200.213 281.374C203.071 283.44 205.758 285.37 208.427 287.304C208.497 287.236 208.549 287.186 208.597 287.141C206.528 284.5 204.483 281.854 202.244 278.996C208.03 278.452 213.575 277.922 219.138 277.392V277.143L219.157 277.125Z" fill="#EFE6D9"/>
</g>
<defs>
<filter id="filter0_d_2073_1634" x="0" y="0" width="347.431" height="353.484" filterUnits="userSpaceOnUse" color-interpolation-filters="sRGB">
<feFlood flood-opacity="0" result="BackgroundImageFix"/>
<feColorMatrix in="SourceAlpha" type="matrix" values="0 0 0 0 0 0 0 0 0 0 0 0 0 0 0 0 0 0 127 0" result="hardAlpha"/>
<feOffset/>
<feGaussianBlur stdDeviation="62"/>
<feComposite in2="hardAlpha" operator="out"/>
<feColorMatrix type="matrix" values="0 0 0 0 0.937255 0 0 0 0 0.901961 0 0 0 0 0.85098 0 0 0 0.5 0"/>
<feBlend mode="normal" in2="BackgroundImageFix" result="effect1_dropShadow_2073_1634"/>
<feBlend mode="normal" in="SourceGraphic" in2="effect1_dropShadow_2073_1634" result="shape"/>
</filter>
<filter id="filter1_d_2073_1634" x="91.5068" y="73.0132" width="312.493" height="316.377" filterUnits="userSpaceOnUse" color-interpolation-filters="sRGB">
<feFlood flood-opacity="0" result="BackgroundImageFix"/>
<feColorMatrix in="SourceAlpha" type="matrix" values="0 0 0 0 0 0 0 0 0 0 0 0 0 0 0 0 0 0 127 0" result="hardAlpha"/>
<feOffset/>
<feGaussianBlur stdDeviation="62"/>
<feComposite in2="hardAlpha" operator="out"/>
<feColorMatrix type="matrix" values="0 0 0 0 0.937255 0 0 0 0 0.901961 0 0 0 0 0.85098 0 0 0 0.5 0"/>
<feBlend mode="normal" in2="BackgroundImageFix" result="effect1_dropShadow_2073_1634"/>
<feBlend mode="normal" in="SourceGraphic" in2="effect1_dropShadow_2073_1634" result="shape"/>
</filter>
<filter id="filter2_d_2073_1634" x="53.7842" y="130.96" width="289.373" height="292.04" filterUnits="userSpaceOnUse" color-interpolation-filters="sRGB">
<feFlood flood-opacity="0" result="BackgroundImageFix"/>
<feColorMatrix in="SourceAlpha" type="matrix" values="0 0 0 0 0 0 0 0 0 0 0 0 0 0 0 0 0 0 127 0" result="hardAlpha"/>
<feOffset/>
<feGaussianBlur stdDeviation="62"/>
<feComposite in2="hardAlpha" operator="out"/>
<feColorMatrix type="matrix" values="0 0 0 0 0.937255 0 0 0 0 0.901961 0 0 0 0 0.85098 0 0 0 0.5 0"/>
<feBlend mode="normal" in2="BackgroundImageFix" result="effect1_dropShadow_2073_1634"/>
<feBlend mode="normal" in="SourceGraphic" in2="effect1_dropShadow_2073_1634" result="shape"/>
</filter>
</defs>
</svg>
