<svg width="547" height="584" viewBox="0 0 547 584" fill="none" xmlns="http://www.w3.org/2000/svg">
<g filter="url(#filter0_d_2073_1670)">
<path d="M232.424 225.931C258.052 223.494 283.658 221.077 310.33 218.494C300.018 205.495 290.489 193.35 280.982 181.267L281.852 180.434C294.079 189.475 306.283 198.516 319.532 208.391C322.317 179.684 325.014 151.873 327.712 124H329.061C331.845 151.811 334.695 179.517 337.632 208.537C350.642 198.891 362.868 189.767 375.16 180.663C375.486 180.976 375.791 181.205 376.117 181.497C366.588 193.412 357.081 205.349 346.769 218.494C372.876 221.077 397.938 223.432 423 225.931V227.077C397.938 229.577 372.876 232.014 346.682 234.681C357.081 247.972 366.762 260.346 376.509 272.741C376.269 272.97 376.03 273.199 375.791 273.429C363.412 264.533 351.034 255.575 337.632 245.93C334.782 273.345 331.998 299.927 329.213 326.53H327.864C325.167 299.802 322.469 273.054 319.684 245.472C306.522 254.971 294.144 263.846 281.852 272.741C281.526 272.429 281.287 272.199 281.069 271.991C290.598 259.846 300.018 247.68 310.33 234.535C283.68 232.035 258.139 229.598 232.511 227.16V226.015L232.424 225.931Z" fill="#EFE6D9"/>
</g>
<g filter="url(#filter1_d_2073_1670)">
<path d="M124 330.26C140.623 328.68 157.231 327.114 174.531 325.439C167.843 317.013 161.662 309.14 155.496 301.308L156.06 300.767C163.99 306.628 171.907 312.489 180.5 318.89C182.306 300.281 184.056 282.254 185.806 264.185H186.681C188.487 282.213 190.336 300.173 192.24 318.984C200.679 312.732 208.609 306.817 216.582 300.916C216.794 301.119 216.991 301.267 217.203 301.456C211.022 309.18 204.856 316.918 198.167 325.439C215.1 327.114 231.356 328.639 247.612 330.26V331.003C231.356 332.623 215.1 334.203 198.111 335.932C204.856 344.547 211.135 352.568 217.457 360.603C217.302 360.752 217.146 360.9 216.991 361.049C208.962 355.283 200.933 349.476 192.24 343.224C190.392 360.995 188.586 378.226 186.78 395.47H185.905C184.155 378.145 182.405 360.806 180.599 342.927C172.062 349.084 164.033 354.837 156.06 360.603C155.848 360.401 155.693 360.252 155.552 360.117C161.733 352.244 167.843 344.358 174.531 335.837C157.245 334.217 140.679 332.637 124.056 331.057V330.314L124 330.26Z" fill="#EFE6D9"/>
</g>
<g filter="url(#filter2_d_2073_1670)">
<path d="M240.614 418C251.278 416.983 261.933 415.974 273.031 414.895C268.74 409.468 264.775 404.397 260.819 399.353L261.181 399.005C266.269 402.78 271.347 406.554 276.86 410.677C278.019 398.692 279.141 387.081 280.264 375.444H280.825C281.983 387.055 283.169 398.622 284.391 410.738C289.805 406.711 294.892 402.901 300.007 399.101C300.142 399.231 300.269 399.327 300.405 399.449C296.44 404.424 292.484 409.407 288.193 414.895C299.056 415.974 309.484 416.956 319.913 418V418.479C309.484 419.522 299.056 420.54 288.157 421.653C292.484 427.202 296.512 432.368 300.568 437.543C300.468 437.639 300.369 437.735 300.269 437.83C295.118 434.116 289.968 430.377 284.391 426.35C283.206 437.795 282.047 448.893 280.888 460H280.327C279.204 448.841 278.082 437.674 276.923 426.158C271.447 430.124 266.296 433.829 261.181 437.543C261.045 437.413 260.946 437.317 260.855 437.23C264.82 432.16 268.74 427.08 273.031 421.592C261.942 420.549 251.314 419.531 240.651 418.513V418.035L240.614 418Z" fill="#EFE6D9"/>
</g>
<defs>
<filter id="filter0_d_2073_1670" x="108.424" y="0" width="438.575" height="450.53" filterUnits="userSpaceOnUse" color-interpolation-filters="sRGB">
<feFlood flood-opacity="0" result="BackgroundImageFix"/>
<feColorMatrix in="SourceAlpha" type="matrix" values="0 0 0 0 0 0 0 0 0 0 0 0 0 0 0 0 0 0 127 0" result="hardAlpha"/>
<feOffset/>
<feGaussianBlur stdDeviation="62"/>
<feComposite in2="hardAlpha" operator="out"/>
<feColorMatrix type="matrix" values="0 0 0 0 0.937255 0 0 0 0 0.901961 0 0 0 0 0.85098 0 0 0 0.5 0"/>
<feBlend mode="normal" in2="BackgroundImageFix" result="effect1_dropShadow_2073_1670"/>
<feBlend mode="normal" in="SourceGraphic" in2="effect1_dropShadow_2073_1670" result="shape"/>
</filter>
<filter id="filter1_d_2073_1670" x="0" y="140.186" width="371.612" height="379.285" filterUnits="userSpaceOnUse" color-interpolation-filters="sRGB">
<feFlood flood-opacity="0" result="BackgroundImageFix"/>
<feColorMatrix in="SourceAlpha" type="matrix" values="0 0 0 0 0 0 0 0 0 0 0 0 0 0 0 0 0 0 127 0" result="hardAlpha"/>
<feOffset/>
<feGaussianBlur stdDeviation="62"/>
<feComposite in2="hardAlpha" operator="out"/>
<feColorMatrix type="matrix" values="0 0 0 0 0.937255 0 0 0 0 0.901961 0 0 0 0 0.85098 0 0 0 0.5 0"/>
<feBlend mode="normal" in2="BackgroundImageFix" result="effect1_dropShadow_2073_1670"/>
<feBlend mode="normal" in="SourceGraphic" in2="effect1_dropShadow_2073_1670" result="shape"/>
</filter>
<filter id="filter2_d_2073_1670" x="116.615" y="251.444" width="327.298" height="332.556" filterUnits="userSpaceOnUse" color-interpolation-filters="sRGB">
<feFlood flood-opacity="0" result="BackgroundImageFix"/>
<feColorMatrix in="SourceAlpha" type="matrix" values="0 0 0 0 0 0 0 0 0 0 0 0 0 0 0 0 0 0 127 0" result="hardAlpha"/>
<feOffset/>
<feGaussianBlur stdDeviation="62"/>
<feComposite in2="hardAlpha" operator="out"/>
<feColorMatrix type="matrix" values="0 0 0 0 0.937255 0 0 0 0 0.901961 0 0 0 0 0.85098 0 0 0 0.5 0"/>
<feBlend mode="normal" in2="BackgroundImageFix" result="effect1_dropShadow_2073_1670"/>
<feBlend mode="normal" in="SourceGraphic" in2="effect1_dropShadow_2073_1670" result="shape"/>
</filter>
</defs>
</svg>
