<svg xmlns="http://www.w3.org/2000/svg" width="447" height="472" fill="none" viewBox="0 0 447 472"><g filter="url(#a)"><path fill="#efe6d9" d="M196.162 191.954c17.057-1.625 34.099-3.236 51.85-4.958-6.863-8.666-13.205-16.763-19.532-24.818l.579-.555a8125 8125 0 0 1 25.078 18.638c1.853-19.138 3.649-37.679 5.444-56.261h.898c1.853 18.541 3.75 37.012 5.705 56.358 8.658-6.43 16.796-12.513 24.976-18.582.217.208.42.361.637.555a3298 3298 0 0 0-19.532 24.665c17.375 1.722 34.055 3.292 50.735 4.958v.764c-16.68 1.667-33.36 3.292-50.793 5.069 6.921 8.861 13.364 17.11 19.851 25.374l-.478.458c-8.238-5.93-16.477-11.902-25.396-18.332-1.897 18.277-3.75 35.998-5.604 53.733h-.897c-1.796-17.819-3.591-35.651-5.445-54.039-8.76 6.333-16.998 12.25-25.179 18.18l-.521-.5c6.342-8.097 12.611-16.208 19.474-24.971-17.737-1.666-34.735-3.291-51.792-4.916v-.764z"/></g><g filter="url(#b)"><path fill="#efe6d9" d="M124 261.507c11.064-1.054 22.118-2.098 33.632-3.214-4.452-5.618-8.565-10.866-12.67-16.088l.376-.36a5096 5096 0 0 1 16.266 12.082c1.202-12.406 2.367-24.424 3.531-36.47h.583c1.202 12.018 2.432 23.992 3.7 36.533 5.616-4.169 10.894-8.112 16.2-12.046.141.135.273.234.414.36a2137 2137 0 0 0-12.67 15.989c11.27 1.116 22.089 2.133 32.909 3.214v.495c-10.82 1.08-21.639 2.133-32.946 3.286 4.489 5.743 8.668 11.091 12.876 16.448l-.31.297c-5.344-3.844-10.688-7.716-16.473-11.884-1.23 11.848-2.432 23.335-3.635 34.831h-.582l-3.531-35.029c-5.682 4.105-11.026 7.94-16.332 11.785l-.338-.325c4.113-5.248 8.18-10.506 12.632-16.186-11.505-1.081-22.531-2.134-33.594-3.187v-.495z"/></g><g filter="url(#c)"><path fill="#efe6d9" d="M201.614 320c7.097-.678 14.188-1.351 21.574-2.07-2.855-3.618-5.494-6.998-8.127-10.361l.241-.232c3.386 2.516 6.766 5.033 10.435 7.781.771-7.99 1.518-15.731 2.265-23.489h.374c.771 7.741 1.56 15.453 2.373 23.53 3.603-2.685 6.989-5.225 10.393-7.759.091.087.175.151.265.232a1381 1381 0 0 0-8.127 10.298c7.23.719 14.17 1.374 21.111 2.07v.319c-6.941.696-13.881 1.374-21.135 2.116 2.88 3.7 5.561 7.144 8.26 10.594l-.199.191c-3.428-2.476-6.856-4.969-10.568-7.654-.789 7.631-1.56 15.03-2.331 22.434h-.374l-2.265-22.561c-3.645 2.644-7.073 5.114-10.477 7.59l-.217-.209c2.639-3.38 5.248-6.766 8.103-10.425-7.38-.696-14.453-1.374-21.55-2.053v-.319z"/></g><defs><filter id="a" width="374.838" height="383.02" x="72.162" y="0" color-interpolation-filters="sRGB" filterUnits="userSpaceOnUse"><feFlood flood-opacity="0" result="BackgroundImageFix"/><feColorMatrix in="SourceAlpha" result="hardAlpha" values="0 0 0 0 0 0 0 0 0 0 0 0 0 0 0 0 0 0 127 0"/><feOffset/><feGaussianBlur stdDeviation="62"/><feComposite in2="hardAlpha" operator="out"/><feColorMatrix values="0 0 0 0 0.937255 0 0 0 0 0.901961 0 0 0 0 0.85098 0 0 0 0.5 0"/><feBlend in2="BackgroundImageFix" result="effect1_dropShadow_2023_3407"/><feBlend in="SourceGraphic" in2="effect1_dropShadow_2023_3407" result="shape"/></filter><filter id="b" width="330.271" height="335.523" x="0" y="93.457" color-interpolation-filters="sRGB" filterUnits="userSpaceOnUse"><feFlood flood-opacity="0" result="BackgroundImageFix"/><feColorMatrix in="SourceAlpha" result="hardAlpha" values="0 0 0 0 0 0 0 0 0 0 0 0 0 0 0 0 0 0 127 0"/><feOffset/><feGaussianBlur stdDeviation="62"/><feComposite in2="hardAlpha" operator="out"/><feColorMatrix values="0 0 0 0 0.937255 0 0 0 0 0.901961 0 0 0 0 0.85098 0 0 0 0.5 0"/><feBlend in2="BackgroundImageFix" result="effect1_dropShadow_2023_3407"/><feBlend in="SourceGraphic" in2="effect1_dropShadow_2023_3407" result="shape"/></filter><filter id="c" width="300.777" height="304.371" x="77.613" y="167.629" color-interpolation-filters="sRGB" filterUnits="userSpaceOnUse"><feFlood flood-opacity="0" result="BackgroundImageFix"/><feColorMatrix in="SourceAlpha" result="hardAlpha" values="0 0 0 0 0 0 0 0 0 0 0 0 0 0 0 0 0 0 127 0"/><feOffset/><feGaussianBlur stdDeviation="62"/><feComposite in2="hardAlpha" operator="out"/><feColorMatrix values="0 0 0 0 0.937255 0 0 0 0 0.901961 0 0 0 0 0.85098 0 0 0 0.5 0"/><feBlend in2="BackgroundImageFix" result="effect1_dropShadow_2023_3407"/><feBlend in="SourceGraphic" in2="effect1_dropShadow_2023_3407" result="shape"/></filter></defs></svg>