<svg xmlns="http://www.w3.org/2000/svg" width="33" height="28" fill="none" viewBox="0 0 33 28"><path fill="#ffc87b" d="M10.262 14.464c-.636 2.217-3.267 1.934-3.692-.29-.686.779-1.301 1.65-2.249 2.139-.17.085-.969.417-1.096.375-.34-.1.035-1.062-.283-1.31-.127-.1-.969-.128-1.33-.255-.226-.078-1.619-.857-1.612-.999.424-.262.884-.708 1.33-.906.353-.156 1.407-.262 1.52-.347.53-.418-.615-1.82 1.096-1.02C5 12.34 5.7 13.168 6.57 13.891c.58-1.105 1.295-1.848 2.631-1.324.934.368.637.757 1.012 1.317.261.39 1.011-.135 1.435-.234 2.313-.545 4.718-.135 7.221-.8 3.636-.963 5.41-3.796 9.371-1.43.828.495 1.599 1.16 2.462 1.642.742.411 1.527.716 2.298 1.055-.728.326-1.471.61-2.171.999-2.49 1.388-3.791 3.696-7.087 2.478-1.032-.382-1.987-1.126-2.992-1.579-2.673-1.218-4.681-.963-7.482-1.098-1.026-.049-2.016-.261-3.013-.46z"/><path fill="#ffc87b" d="M10.319 12.687c-.042-.174.063-.174.154-.258 1.938-1.761 3.834-5.165 1.468-7.395-1.348-1.272-3.904-.643-3.525 1.391.239 1.3.674.35 1.39.357.878 0 1.489 1.006 1.44 1.81-.099 1.628-1.882 2.558-3.37 2.425-2.128-.189-3.792-2.544-3.946-4.55-.491-6.122 7.344-8.771 11.205-4.054 3.25 3.977.316 10.302-4.81 10.274zM10.885 15.313c4.048.445 6.461 4.08 5.34 8.182-1.497 5.503-9.442 6.231-11.542.7-1.347-3.55 1.47-8.904 5.334-7.1 1.36.636 1.948 2.864.513 3.585-.903.453-1.669-.785-1.874.481-.438 2.674 3.521 3 4.335.283.711-2.369-.82-4.363-2.1-6.131zM15.197 15.32c2.29.027 4.593 1.074 6.276 2.615 1.227 1.123 2.765 3.188 1.503 4.834a2.177 2.177 0 0 1-3.048.412c-1.145-.858-.607-1.967-.738-3.209-.11-1.074-.855-2.232-1.627-2.957-.71-.67-1.6-1.11-2.366-1.703z"/><path fill="#ffc87b" d="M14.77 12.688c-.036-.168.079-.231.194-.315.382-.294 1.081-.566 1.55-.895 1.196-.86 2.435-2.363 2.601-3.839.108-.937-.223-1.901.533-2.664 1.117-1.111 3.438-.615 3.747.958.498 2.58-2.687 4.895-4.828 5.783-1.246.517-2.486.699-3.797.972"/></svg>